<svg width="552" height="328" viewBox="0 0 552 328" fill="none" xmlns="http://www.w3.org/2000/svg">
<path d="M97.3251 10.8V78H89.4531L49.1331 27.888V78H39.5331V10.8H47.4051L87.7251 60.912V10.8H97.3251ZM152.775 78.768C145.991 78.768 139.879 77.296 134.439 74.352C128.999 71.344 124.711 67.216 121.575 61.968C118.503 56.72 116.967 50.864 116.967 44.4C116.967 37.936 118.503 32.08 121.575 26.832C124.711 21.584 128.999 17.488 134.439 14.544C139.879 11.536 145.991 10.032 152.775 10.032C159.495 10.032 165.575 11.536 171.015 14.544C176.455 17.488 180.711 21.584 183.783 26.832C186.855 32.016 188.391 37.872 188.391 44.4C188.391 50.928 186.855 56.816 183.783 62.064C180.711 67.248 176.455 71.344 171.015 74.352C165.575 77.296 159.495 78.768 152.775 78.768ZM152.775 70.224C157.703 70.224 162.119 69.104 166.023 66.864C169.991 64.624 173.095 61.552 175.335 57.648C177.639 53.68 178.791 49.264 178.791 44.4C178.791 39.536 177.639 35.152 175.335 31.248C173.095 27.28 169.991 24.176 166.023 21.936C162.119 19.696 157.703 18.576 152.775 18.576C147.847 18.576 143.367 19.696 139.335 21.936C135.367 24.176 132.231 27.28 129.927 31.248C127.687 35.152 126.567 39.536 126.567 44.4C126.567 49.264 127.687 53.68 129.927 57.648C132.231 61.552 135.367 64.624 139.335 66.864C143.367 69.104 147.847 70.224 152.775 70.224ZM177.927 4.08H185.415L127.623 84.72H120.135L177.927 4.08ZM264.276 10.8L234.804 78H225.3L195.732 10.8H206.1L230.292 66L254.676 10.8H264.276ZM326.614 69.648V78H277.846V10.8H325.27V19.152H287.446V39.792H321.142V47.952H287.446V69.648H326.614ZM347.158 10.8H356.758V69.648H393.142V78H347.158V10.8ZM416.221 19.152H393.181V10.8H448.765V19.152H425.725V78H416.221V19.152ZM489.199 54.768V78H479.695V54.576L453.007 10.8H463.279L484.783 46.224L506.383 10.8H515.887L489.199 54.768Z" fill="black"/>
<rect x="8" y="185" width="544" height="143" fill="black"/>
<path d="M100.325 220.8V288H92.4531L52.1331 237.888V288H42.5331V220.8H50.4051L90.7251 270.912V220.8H100.325ZM155.775 288.768C148.991 288.768 142.879 287.296 137.439 284.352C131.999 281.344 127.711 277.216 124.575 271.968C121.503 266.72 119.967 260.864 119.967 254.4C119.967 247.936 121.503 242.08 124.575 236.832C127.711 231.584 131.999 227.488 137.439 224.544C142.879 221.536 148.991 220.032 155.775 220.032C162.495 220.032 168.575 221.536 174.015 224.544C179.455 227.488 183.711 231.584 186.783 236.832C189.855 242.016 191.391 247.872 191.391 254.4C191.391 260.928 189.855 266.816 186.783 272.064C183.711 277.248 179.455 281.344 174.015 284.352C168.575 287.296 162.495 288.768 155.775 288.768ZM155.775 280.224C160.703 280.224 165.119 279.104 169.023 276.864C172.991 274.624 176.095 271.552 178.335 267.648C180.639 263.68 181.791 259.264 181.791 254.4C181.791 249.536 180.639 245.152 178.335 241.248C176.095 237.28 172.991 234.176 169.023 231.936C165.119 229.696 160.703 228.576 155.775 228.576C150.847 228.576 146.367 229.696 142.335 231.936C138.367 234.176 135.231 237.28 132.927 241.248C130.687 245.152 129.567 249.536 129.567 254.4C129.567 259.264 130.687 263.68 132.927 267.648C135.231 271.552 138.367 274.624 142.335 276.864C146.367 279.104 150.847 280.224 155.775 280.224ZM180.927 214.08H188.415L130.623 294.72H123.135L180.927 214.08ZM267.276 220.8L237.804 288H228.3L198.732 220.8H209.1L233.292 276L257.676 220.8H267.276ZM329.614 279.648V288H280.846V220.8H328.27V229.152H290.446V249.792H324.142V257.952H290.446V279.648H329.614ZM350.158 220.8H359.758V279.648H396.142V288H350.158V220.8ZM419.221 229.152H396.181V220.8H451.765V229.152H428.725V288H419.221V229.152ZM492.199 264.768V288H482.695V264.576L456.007 220.8H466.279L487.783 256.224L509.383 220.8H518.887L492.199 264.768Z" fill="white"/>
</svg>
