<svg width="562" height="69" viewBox="0 0 562 69" fill="none" xmlns="http://www.w3.org/2000/svg">
<path d="M62.384 68L62.288 19.04L38 59.84H33.584L9.296 19.328V68H0.0800004V0.799995H7.952L35.984 48.032L63.632 0.799995H71.504L71.6 68H62.384ZM116.055 68.576C110.999 68.576 106.455 67.456 102.423 65.216C98.3915 62.976 95.2235 59.904 92.9195 56C90.6795 52.032 89.5595 47.552 89.5595 42.56C89.5595 37.568 90.6795 33.12 92.9195 29.216C95.2235 25.248 98.3915 22.176 102.423 20C106.455 17.76 110.999 16.64 116.055 16.64C121.111 16.64 125.623 17.76 129.591 20C133.623 22.176 136.759 25.248 139 29.216C141.304 33.12 142.456 37.568 142.456 42.56C142.456 47.552 141.304 52.032 139 56C136.759 59.904 133.623 62.976 129.591 65.216C125.623 67.456 121.111 68.576 116.055 68.576ZM116.055 60.512C119.319 60.512 122.231 59.776 124.791 58.304C127.415 56.768 129.463 54.656 130.935 51.968C132.407 49.216 133.143 46.08 133.143 42.56C133.143 39.04 132.407 35.936 130.935 33.248C129.463 30.496 127.415 28.384 124.791 26.912C122.231 25.44 119.319 24.704 116.055 24.704C112.791 24.704 109.847 25.44 107.223 26.912C104.663 28.384 102.615 30.496 101.079 33.248C99.6075 35.936 98.8715 39.04 98.8715 42.56C98.8715 46.08 99.6075 49.216 101.079 51.968C102.615 54.656 104.663 56.768 107.223 58.304C109.847 59.776 112.791 60.512 116.055 60.512ZM186.209 16.64C192.673 16.64 197.793 18.528 201.569 22.304C205.409 26.016 207.329 31.488 207.329 38.72V68H198.113V39.776C198.113 34.848 196.929 31.136 194.561 28.64C192.193 26.144 188.801 24.896 184.385 24.896C179.393 24.896 175.457 26.368 172.577 29.312C169.697 32.192 168.257 36.352 168.257 41.792V68H159.041V17.12H167.873V24.8C169.729 22.176 172.225 20.16 175.361 18.752C178.561 17.344 182.177 16.64 186.209 16.64ZM256.833 65.024C255.489 66.176 253.825 67.072 251.841 67.712C249.857 68.288 247.809 68.576 245.697 68.576C240.577 68.576 236.609 67.2 233.793 64.448C230.977 61.696 229.569 57.76 229.569 52.64V24.704H220.929V17.12H229.569V5.984H238.785V17.12H253.377V24.704H238.785V52.256C238.785 55.008 239.457 57.12 240.801 58.592C242.209 60.064 244.193 60.8 246.753 60.8C249.569 60.8 251.969 60 253.953 58.4L256.833 65.024ZM286.407 68.576C282.247 68.576 278.247 68.032 274.407 66.944C270.567 65.792 267.559 64.352 265.383 62.624L269.223 55.328C271.463 56.928 274.183 58.208 277.383 59.168C280.583 60.128 283.815 60.608 287.079 60.608C295.143 60.608 299.175 58.304 299.175 53.696C299.175 52.16 298.631 50.944 297.543 50.048C296.455 49.152 295.079 48.512 293.415 48.128C291.815 47.68 289.511 47.2 286.503 46.688C282.407 46.048 279.047 45.312 276.423 44.48C273.863 43.648 271.655 42.24 269.799 40.256C267.943 38.272 267.015 35.488 267.015 31.904C267.015 27.296 268.935 23.616 272.775 20.864C276.615 18.048 281.767 16.64 288.231 16.64C291.623 16.64 295.015 17.056 298.407 17.888C301.799 18.72 304.583 19.84 306.759 21.248L302.823 28.544C298.663 25.856 293.767 24.512 288.135 24.512C284.231 24.512 281.255 25.152 279.207 26.432C277.159 27.712 276.135 29.408 276.135 31.52C276.135 33.184 276.711 34.496 277.863 35.456C279.015 36.416 280.423 37.12 282.087 37.568C283.815 38.016 286.215 38.528 289.287 39.104C293.383 39.808 296.679 40.576 299.175 41.408C301.735 42.176 303.911 43.52 305.703 45.44C307.495 47.36 308.391 50.048 308.391 53.504C308.391 58.112 306.407 61.792 302.439 64.544C298.535 67.232 293.191 68.576 286.407 68.576ZM369.733 42.848C369.733 43.552 369.669 44.48 369.541 45.632H328.261C328.837 50.112 330.789 53.728 334.117 56.48C337.509 59.168 341.701 60.512 346.693 60.512C352.773 60.512 357.669 58.464 361.381 54.368L366.469 60.32C364.165 63.008 361.285 65.056 357.829 66.464C354.437 67.872 350.629 68.576 346.405 68.576C341.029 68.576 336.261 67.488 332.101 65.312C327.941 63.072 324.709 59.968 322.405 56C320.165 52.032 319.045 47.552 319.045 42.56C319.045 37.632 320.133 33.184 322.309 29.216C324.549 25.248 327.589 22.176 331.429 20C335.333 17.76 339.717 16.64 344.581 16.64C349.445 16.64 353.765 17.76 357.541 20C361.381 22.176 364.357 25.248 366.469 29.216C368.645 33.184 369.733 37.728 369.733 42.848ZM344.581 24.416C340.165 24.416 336.453 25.76 333.445 28.448C330.501 31.136 328.773 34.656 328.261 39.008H360.901C360.389 34.72 358.629 31.232 355.621 28.544C352.677 25.792 348.997 24.416 344.581 24.416ZM395.202 25.664C396.802 22.72 399.17 20.48 402.306 18.944C405.442 17.408 409.25 16.64 413.73 16.64V25.568C413.218 25.504 412.514 25.472 411.618 25.472C406.626 25.472 402.69 26.976 399.81 29.984C396.994 32.928 395.586 37.152 395.586 42.656V68H386.37V17.12H395.202V25.664ZM437.761 25.664C439.361 22.72 441.729 20.48 444.865 18.944C448.001 17.408 451.809 16.64 456.289 16.64V25.568C455.777 25.504 455.073 25.472 454.177 25.472C449.185 25.472 445.249 26.976 442.369 29.984C439.553 32.928 438.145 37.152 438.145 42.656V68H428.929V17.12H437.761V25.664ZM489.922 16.64C496.962 16.64 502.338 18.368 506.05 21.824C509.826 25.28 511.714 30.432 511.714 37.28V68H502.978V61.28C501.442 63.648 499.234 65.472 496.354 66.752C493.538 67.968 490.178 68.576 486.274 68.576C480.578 68.576 476.002 67.2 472.546 64.448C469.154 61.696 467.458 58.08 467.458 53.6C467.458 49.12 469.09 45.536 472.354 42.848C475.618 40.096 480.802 38.72 487.906 38.72H502.498V36.896C502.498 32.928 501.346 29.888 499.042 27.776C496.738 25.664 493.346 24.608 488.866 24.608C485.858 24.608 482.914 25.12 480.034 26.144C477.154 27.104 474.722 28.416 472.738 30.08L468.898 23.168C471.522 21.056 474.658 19.456 478.306 18.368C481.954 17.216 485.826 16.64 489.922 16.64ZM487.81 61.472C491.33 61.472 494.37 60.704 496.93 59.168C499.49 57.568 501.346 55.328 502.498 52.448V45.344H488.29C480.482 45.344 476.578 47.968 476.578 53.216C476.578 55.776 477.57 57.792 479.554 59.264C481.538 60.736 484.29 61.472 487.81 61.472ZM561.217 65.024C559.873 66.176 558.208 67.072 556.224 67.712C554.24 68.288 552.192 68.576 550.08 68.576C544.96 68.576 540.992 67.2 538.176 64.448C535.36 61.696 533.952 57.76 533.952 52.64V24.704H525.312V17.12H533.952V5.984H543.168V17.12H557.76V24.704H543.168V52.256C543.168 55.008 543.84 57.12 545.184 58.592C546.592 60.064 548.576 60.8 551.136 60.8C553.952 60.8 556.352 60 558.337 58.4L561.217 65.024Z" fill="black"/>
</svg>
