<svg width="477" height="81" viewBox="0 0 477 81" fill="none" xmlns="http://www.w3.org/2000/svg">
<path d="M58.3251 6.8V74H50.4531L10.1331 23.888V74H0.533125V6.8H8.40513L48.7251 56.912V6.8H58.3251ZM113.775 74.768C106.991 74.768 100.879 73.296 95.4394 70.352C89.9994 67.344 85.7114 63.216 82.5754 57.968C79.5034 52.72 77.9674 46.864 77.9674 40.4C77.9674 33.936 79.5034 28.08 82.5754 22.832C85.7114 17.584 89.9994 13.488 95.4394 10.544C100.879 7.536 106.991 6.032 113.775 6.032C120.495 6.032 126.575 7.536 132.015 10.544C137.455 13.488 141.711 17.584 144.783 22.832C147.855 28.016 149.391 33.872 149.391 40.4C149.391 46.928 147.855 52.816 144.783 58.064C141.711 63.248 137.455 67.344 132.015 70.352C126.575 73.296 120.495 74.768 113.775 74.768ZM113.775 66.224C118.703 66.224 123.119 65.104 127.023 62.864C130.991 60.624 134.095 57.552 136.335 53.648C138.639 49.68 139.791 45.264 139.791 40.4C139.791 35.536 138.639 31.152 136.335 27.248C134.095 23.28 130.991 20.176 127.023 17.936C123.119 15.696 118.703 14.576 113.775 14.576C108.847 14.576 104.367 15.696 100.335 17.936C96.3674 20.176 93.2314 23.28 90.9274 27.248C88.6874 31.152 87.5674 35.536 87.5674 40.4C87.5674 45.264 88.6874 49.68 90.9274 53.648C93.2314 57.552 96.3674 60.624 100.335 62.864C104.367 65.104 108.847 66.224 113.775 66.224ZM138.927 0.0799961H146.415L88.6234 80.72H81.1354L138.927 0.0799961ZM225.276 6.8L195.804 74H186.3L156.732 6.8H167.1L191.292 62L215.676 6.8H225.276ZM287.614 65.648V74H238.846V6.8H286.27V15.152H248.446V35.792H282.142V43.952H248.446V65.648H287.614ZM308.158 6.8H317.758V65.648H354.142V74H308.158V6.8ZM377.221 15.152H354.181V6.8H409.765V15.152H386.725V74H377.221V15.152ZM450.199 50.768V74H440.695V50.576L414.007 6.8H424.279L445.783 42.224L467.383 6.8H476.887L450.199 50.768Z" fill="black"/>
</svg>
