<svg id="Layer_1" enable-background="new 0 0 497 497" height="512" viewBox="0 0 497 497" width="512" xmlns="http://www.w3.org/2000/svg"><g clip-rule="evenodd" fill-rule="evenodd"><path d="m35.235 62.866v392.9l22.677 17.867 22.706-17.867v-167.54-142.142-83.218l-23.812-21.717z" fill="#ececec"/><path d="m246.36 146.084v142.142h165.742l22.677-75.064-22.677-67.078z" fill="#a6e7f0"/><path d="m412.102 146.084v142.142 167.54l22.706 15.744 22.649-15.744v-392.9l-22.678-28.683-22.677 28.683z" fill="#ececec"/><path d="m434.779 62.866v392.9h22.678v-167.54-142.142-83.218z" fill="#cecece"/><path d="m131.443 382.827v72.94l14.598 16.479 18.057-16.479v-72.94l-16.072-11.836-16.356 11.836c-.057 0-.142 0-.227 0z" fill="#ececec"/><path d="m331.513 382.827v72.94l14.031 13.478 18.595-13.478v-72.94c-.057 0-.17.057-.227 0l-16.724-17.244z" fill="#ececec"/><path d="m22.167 491.5h456.946c9.836 0 17.887-8.041 17.887-17.867 0-9.825-8.05-17.867-17.887-17.867-142.243 0-293.018 0-443.879 0h-13.067c-9.836 0-17.887 8.041-17.887 17.867s8.051 17.867 17.887 17.867z" fill="#838383"/><path d="m80.618 288.226h165.742l22.97-77.046-22.97-65.096h-165.742l-22.692 66.418z" fill="#a6e7f0"/><path d="m391.608 146.084h20.495v142.142h-20.495z" fill="#6bd9e7"/><path d="m225.865 146.084h20.495v142.142h-20.495z" fill="#6bd9e7"/><path d="m298.773 220.327h59.811c6.236 0 11.367-5.097 11.367-11.326v-20.019c0-6.229-5.131-11.326-11.367-11.326h-59.811c-6.236 0-11.339 5.097-11.339 11.326v20.018c0 6.23 5.102 11.327 11.339 11.327z" fill="#ececec"/></g><path d="m369.951 260.901h-82.517c-4.175 0-7.559-3.384-7.559-7.559s3.384-7.559 7.559-7.559h82.517c4.175 0 7.559 3.384 7.559 7.559s-3.385 7.559-7.559 7.559z" fill="#03bed7"/><path d="m203.812 189.405h-80.277c-4.175 0-7.559-3.384-7.559-7.559s3.384-7.559 7.559-7.559h80.277c4.175 0 7.559 3.384 7.559 7.559s-3.385 7.559-7.559 7.559z" fill="#03bed7"/><path d="m203.812 226.102h-80.277c-4.175 0-7.559-3.384-7.559-7.559s3.384-7.559 7.559-7.559h80.277c4.175 0 7.559 3.384 7.559 7.559s-3.385 7.559-7.559 7.559z" fill="#03bed7"/><path d="m203.812 262.798h-80.277c-4.175 0-7.559-3.384-7.559-7.559s3.384-7.559 7.559-7.559h80.277c4.175 0 7.559 3.384 7.559 7.559s-3.385 7.559-7.559 7.559z" fill="#03bed7"/><path clip-rule="evenodd" d="m164.098 382.827h167.415 32.4.227c9.836-.113 17.83-8.183 17.83-18.037 0-9.91-8.107-18.037-18.057-18.037h-232.243c-9.921 0-18.057 8.126-18.057 18.037 0 9.854 8.022 17.923 17.83 18.037h.227z" fill="#80d261" fill-rule="evenodd"/><path clip-rule="evenodd" d="m80.618 62.866h331.484 45.354 22.762c6.86 0 12.472-5.606 12.472-12.459v-16.224c0-15.772-12.898-28.683-28.715-28.683h-435.26c-15.789 0-28.715 12.912-28.715 28.683v16.225c0 6.852 5.613 12.459 12.472 12.459h22.762 45.384z" fill="#03bed7" fill-rule="evenodd"/><path clip-rule="evenodd" d="m432.285 62.866h25.172 22.762c6.86 0 12.472-5.606 12.472-12.459v-16.224c0-15.772-12.898-28.683-28.715-28.683h-47.906c15.789 0 28.715 12.912 28.715 28.683v16.225c0 .368-.028.736-.057 1.104-.566 6.343-5.923 11.354-12.443 11.354z" fill="#0099b1" fill-rule="evenodd"/><path clip-rule="evenodd" d="m57.912 62.866v392.9h22.706v-167.54-142.142-83.218z" fill="#cecece" fill-rule="evenodd"/><path clip-rule="evenodd" d="m337.891 382.827h26.022.227c9.836-.113 17.83-8.183 17.83-18.037 0-9.91-8.107-18.037-18.057-18.037h-26.249c9.95 0 18.057 8.126 18.057 18.037 0 2.775-.624 5.408-1.757 7.758-2.892 6.003-9.015 10.194-16.073 10.279z" fill="#4fc122" fill-rule="evenodd"/><path clip-rule="evenodd" d="m347.84 382.827v72.94h16.299v-72.94s0 0-.028 0c-.057 0-.142.057-.198 0z" fill="#cecece" fill-rule="evenodd"/><path clip-rule="evenodd" d="m147.771 382.827v72.94h16.328v-72.94c-.028 0-.028 0-.028 0-.057 0-.142.057-.198 0z" fill="#cecece" fill-rule="evenodd"/><path clip-rule="evenodd" d="m331.286 177.656c6.236 0 11.367 5.097 11.367 11.326v20.018c0 6.229-5.131 11.326-11.367 11.326h27.298c6.236 0 11.367-5.097 11.367-11.326v-20.019c0-6.229-5.131-11.326-11.367-11.326h-27.298z" fill="#cecece" fill-rule="evenodd"/><path clip-rule="evenodd" d="m479.113 455.766h-21.657-11.339c3.005 0 5.868.764 8.362 2.095 5.641 3.001 9.524 8.948 9.524 15.771 0 9.825-8.05 17.867-17.887 17.867h32.995c9.836 0 17.887-8.041 17.887-17.867.002-9.824-8.048-17.866-17.885-17.866z" fill="#595959" fill-rule="evenodd"/></svg>