<svg width="384" height="110" viewBox="0 0 384 110" fill="none" xmlns="http://www.w3.org/2000/svg">
<path d="M11.4507 12.464H34.0587C38.7147 12.464 42.0028 13.544 43.9228 15.704C45.8908 17.816 46.8748 20.864 46.8748 24.848C46.8748 28.112 46.2028 30.728 44.8588 32.696C43.5148 34.664 41.3788 35.936 38.4508 36.512V36.8C41.9548 37.424 44.3308 38.792 45.5788 40.904C46.8267 42.968 47.4507 45.656 47.4507 48.968C47.4507 52.952 46.4667 56.12 44.4987 58.472C42.5788 60.824 38.9548 62 33.6268 62H11.4507V12.464ZM32.6908 34.712C39.0748 34.712 42.2668 31.736 42.2668 25.784C42.2668 22.568 41.5708 20.264 40.1787 18.872C38.8347 17.48 36.3388 16.784 32.6908 16.784H16.0587V34.712H32.6908ZM32.9788 57.68C36.6268 57.68 39.1708 56.96 40.6108 55.52C42.0988 54.08 42.8428 51.704 42.8428 48.392C42.8428 45.08 42.0748 42.704 40.5388 41.264C39.0028 39.776 36.4827 39.032 32.9788 39.032H16.0587V57.68H32.9788ZM92.7112 56.456H92.2792C91.5592 58.376 90.2392 59.888 88.3192 60.992C86.4472 62.048 83.5912 62.576 79.7512 62.576C76.1032 62.576 73.3432 62.096 71.4712 61.136C69.6472 60.176 68.3992 58.712 67.7272 56.744C67.1032 54.728 66.7912 51.92 66.7912 48.32V25.28H71.1832V46.808C71.1832 50.36 71.4232 52.928 71.9032 54.512C72.4312 56.048 73.3672 57.08 74.7112 57.608C76.0552 58.136 78.2632 58.4 81.3352 58.4C84.7432 58.4 87.2392 57.848 88.8232 56.744C90.4072 55.592 91.3912 54.104 91.7752 52.28C92.1592 50.408 92.3512 47.744 92.3512 44.288V25.28H96.7432V62H92.9272L92.7112 56.456ZM128.969 62.576C127.001 62.576 124.793 62.48 122.345 62.288C119.897 62.144 117.785 61.952 116.009 61.712V57.752C118.841 58.04 121.169 58.256 122.993 58.4C124.865 58.496 126.929 58.544 129.185 58.544C131.777 58.544 133.697 58.352 134.945 57.968C136.193 57.536 137.009 56.888 137.393 56.024C137.777 55.112 137.969 53.792 137.969 52.064C137.969 50.288 137.825 48.992 137.537 48.176C137.249 47.36 136.769 46.832 136.097 46.592C135.473 46.304 134.417 46.088 132.929 45.944L122.921 44.936C120.761 44.696 119.105 44.24 117.953 43.568C116.801 42.848 115.985 41.864 115.505 40.616C115.073 39.32 114.857 37.568 114.857 35.36C114.857 32.24 115.385 29.912 116.441 28.376C117.545 26.84 119.081 25.856 121.049 25.424C123.017 24.944 125.681 24.704 129.041 24.704C130.769 24.704 132.665 24.8 134.729 24.992C136.841 25.184 138.665 25.4 140.201 25.64V29.6C136.697 29.024 132.785 28.736 128.465 28.736C126.161 28.736 124.385 28.856 123.137 29.096C121.937 29.336 120.977 29.912 120.257 30.824C119.537 31.688 119.177 33.08 119.177 35C119.177 36.632 119.321 37.832 119.609 38.6C119.897 39.32 120.377 39.824 121.049 40.112C121.721 40.4 122.777 40.616 124.217 40.76L134.297 41.84C136.457 42.08 138.065 42.488 139.121 43.064C140.225 43.592 141.017 44.528 141.497 45.872C141.977 47.216 142.217 49.256 142.217 51.992C142.217 54.92 141.737 57.152 140.777 58.688C139.865 60.176 138.473 61.208 136.601 61.784C134.777 62.312 132.233 62.576 128.969 62.576ZM174.115 76.832C169.123 76.832 165.019 76.64 161.803 76.256V72.368C166.171 72.656 169.987 72.8 173.251 72.8C177.091 72.8 179.899 72.344 181.675 71.432C183.451 70.568 184.603 69.2 185.131 67.328C185.659 65.504 185.923 62.72 185.923 58.976V56.888H185.563C184.891 58.568 183.619 59.912 181.747 60.92C179.923 61.928 177.115 62.432 173.323 62.432C169.675 62.432 166.915 61.952 165.043 60.992C163.219 60.032 161.971 58.568 161.299 56.6C160.675 54.632 160.363 51.848 160.363 48.248V25.28H164.755V46.736C164.755 50.288 164.995 52.856 165.475 54.44C166.003 55.976 166.939 57.008 168.283 57.536C169.627 58.016 171.835 58.256 174.907 58.256C178.315 58.256 180.811 57.704 182.395 56.6C183.979 55.496 184.963 54.032 185.347 52.208C185.731 50.336 185.923 47.672 185.923 44.216V25.28H190.315V57.392C190.315 62.528 189.907 66.416 189.091 69.056C188.323 71.744 186.787 73.712 184.483 74.96C182.227 76.208 178.771 76.832 174.115 76.832Z" fill="#1B4C70"/>
<path d="M314.407 57.176H313.903C312.991 59 311.623 60.368 309.799 61.28C307.975 62.144 305.455 62.576 302.239 62.576C298.879 62.576 296.311 62.048 294.535 60.992C292.807 59.936 291.631 58.4 291.007 56.384C290.431 54.368 290.143 51.656 290.143 48.248V25.28H297.775V45.008C297.775 48.32 297.943 50.672 298.279 52.064C298.663 53.408 299.359 54.296 300.367 54.728C301.375 55.112 303.127 55.304 305.623 55.304C308.119 55.304 309.967 54.92 311.167 54.152C312.367 53.384 313.135 52.256 313.471 50.768C313.855 49.232 314.047 47.048 314.047 44.216V25.28H321.679V62H314.695L314.407 57.176ZM353.12 62.576C351.008 62.576 348.656 62.48 346.064 62.288C343.472 62.096 341.24 61.856 339.368 61.568V55.088C343.784 55.568 348.032 55.808 352.112 55.808C354.368 55.808 356.024 55.688 357.08 55.448C358.136 55.16 358.808 54.728 359.096 54.152C359.432 53.528 359.6 52.64 359.6 51.488C359.6 50.288 359.48 49.448 359.24 48.968C359.048 48.44 358.688 48.08 358.16 47.888C357.68 47.696 356.768 47.528 355.424 47.384L346.496 46.304C344.24 46.016 342.512 45.464 341.312 44.648C340.112 43.784 339.296 42.632 338.864 41.192C338.432 39.752 338.216 37.904 338.216 35.648C338.216 32.528 338.792 30.176 339.944 28.592C341.144 27.008 342.752 25.976 344.768 25.496C346.832 24.968 349.52 24.704 352.832 24.704C354.8 24.704 356.912 24.824 359.168 25.064C361.472 25.256 363.368 25.52 364.856 25.856V32.264C361.16 31.736 357.344 31.472 353.408 31.472C351.344 31.472 349.784 31.568 348.728 31.76C347.672 31.904 346.88 32.288 346.352 32.912C345.824 33.488 345.56 34.4 345.56 35.648C345.56 36.704 345.656 37.496 345.848 38.024C346.04 38.504 346.376 38.84 346.856 39.032C347.384 39.224 348.248 39.392 349.448 39.536L359.168 40.76C361.136 41 362.648 41.408 363.704 41.984C364.76 42.56 365.552 43.568 366.08 45.008C366.608 46.448 366.872 48.56 366.872 51.344C366.872 54.464 366.344 56.84 365.288 58.472C364.28 60.104 362.792 61.208 360.824 61.784C358.904 62.312 356.336 62.576 353.12 62.576Z" fill="#1B4C70"/>
<line x1="231.4" y1="90.2" x2="292.6" y2="90.2" stroke="#1B4C70" stroke-width="2"/>
<line x1="200.8" y1="108.2" x2="262" y2="108.2" stroke="#1B4C70" stroke-width="2"/>
<g clip-path="url(#clip0)">
<path d="M268.287 16.6847C267.743 11.3683 266.877 7.229 265.507 5.602C259.856 -1.08776 220.275 -1.57732 215.78 5.602C214.681 7.36092 213.91 11.4856 213.393 16.6934C211.723 16.8899 210.423 18.2955 210.423 20.0163V26.5287C210.423 27.9769 211.341 29.1979 212.622 29.6743C212.318 39.9317 212.565 50.6332 213.019 55.9554C213.019 60.064 215.779 59.3824 215.779 59.3824H218.366V63.8178C218.366 65.5767 220.179 67 222.413 67C224.65 67 226.463 65.5767 226.463 63.8178V59.3824H256.561V63.8178C256.561 65.5767 258.373 67 260.609 67C262.843 67 264.656 65.5767 264.656 63.8178V59.3824H265.507C265.507 59.3824 268.755 59.828 268.963 57.8932C268.963 52.5856 269.297 40.8229 269.021 29.7197C270.383 29.2932 271.377 28.0385 271.377 26.5287V20.0163C271.378 18.2545 270.015 16.8254 268.287 16.6847ZM225.447 6.55621H255.84V11.1543H225.447V6.55621ZM225.881 54.1452C223.495 54.1452 221.561 52.2104 221.561 49.8241C221.561 47.4393 223.495 45.506 225.881 45.506C228.267 45.506 230.202 47.4393 230.202 49.8241C230.202 52.2104 228.269 54.1452 225.881 54.1452ZM255.677 54.1452C253.292 54.1452 251.355 52.2104 251.355 49.8241C251.355 47.4393 253.291 45.506 255.677 45.506C258.063 45.506 259.997 47.4393 259.997 49.8241C259.998 52.2104 258.063 54.1452 255.677 54.1452ZM261.169 35.2368H220.118V13.7047H261.169V35.2368Z" fill="#1B4C70"/>
</g>
<defs>
<clipPath id="clip0">
<rect width="66.6" height="66.6" fill="white" transform="translate(207.6 0.400024)"/>
</clipPath>
</defs>
</svg>
