<svg height="512pt" viewBox="0 0 512 512" width="512pt" xmlns="http://www.w3.org/2000/svg"><path d="m136 440h240v32h-240zm0 0" fill="#eee"/><path d="m312 408v-48h-112v48c0 17.671875-14.328125 32-32 32h176c-17.671875 0-32-14.328125-32-32zm0 0" fill="#cfd8dc"/><path d="m272 360.335938v32c0 8.835937-7.164062 16-16 16s-16-7.164063-16-16v-32zm0 0" fill="#b0bec5"/><path d="m280 304c0 13.253906-10.746094 24-24 24s-24-10.746094-24-24 10.746094-24 24-24 24 10.746094 24 24zm0 0" fill="#d7ccc8"/><path d="m504 248v-224c0-8.835938-7.164062-16-16-16h-464c-8.835938 0-16 7.164062-16 16v224zm0 0" fill="#dce775"/><path d="m504 248v96c0 8.835938-7.164062 16-16 16h-464c-8.835938 0-16-7.164062-16-16v-96zm0 0" fill="#eee"/><path d="m56 56h48v48h-48zm0 0" fill="#ff8a65"/><path d="m56 152h48v48h-48zm0 0" fill="#ffe082"/><path d="m136 56h48v48h-48zm0 0" fill="#ffe082"/><path d="m136 152h48v48h-48zm0 0" fill="#ff8a65"/><path d="m216 56h48v48h-48zm0 0" fill="#ff8a65"/><path d="m216 152h48v48h-48zm0 0" fill="#ffe082"/><path d="m472 440h-96v-260l10.480469-17.464844h75.039062l10.480469 17.464844zm0 0" fill="#ff8a65"/><path d="m424 100-28.800781 48h57.601562zm0 0" fill="#3c3c47"/><path d="m452.800781 148h-57.601562l-19.199219 32 32 16 16-8 16 8 32-16zm0 0" fill="#ffe082"/><path d="m408 196v228h32v-228l-16-8zm0 0" fill="#fff"/><path d="m376 472c0 17.671875 14.328125 32 32 32h32c17.671875 0 32-14.328125 32-32v-16h-96zm0 0" fill="#ffe082"/><path d="m408 424h-32v32h96v-32zm0 0" fill="#90a4ae"/><g fill="#fff"><path d="m480 64h-16v-16h-16v-16h32zm0 0"/><path d="m288 96h128v16h-128zm0 0"/><path d="m288 128h112v16h-112zm0 0"/><path d="m288 176h88v16h-88zm0 0"/><path d="m288 208h88v16h-88zm0 0"/></g><path d="m256 336c17.671875 0 32-14.328125 32-32s-14.328125-32-32-32-32 14.328125-32 32 14.328125 32 32 32zm0-48c8.835938 0 16 7.164062 16 16s-7.164062 16-16 16-16-7.164062-16-16 7.164062-16 16-16zm0 0"/><path d="m488 0h-464c-13.253906 0-24 10.746094-24 24v320c0 13.253906 10.746094 24 24 24h168v40c0 13.253906-10.746094 24-24 24h-40v48h240.800781c3.828125 18.613281 20.199219 31.976562 39.199219 32h32c22.082031-.027344 39.972656-17.917969 40-40v-104h8c13.253906 0 24-10.746094 24-24v-320c0-13.253906-10.746094-24-24-24zm-120 464h-224v-16h224zm-112-47.664062c13.253906 0 24-10.746094 24-24v-24.335938h24v40c.03125 8.683594 2.914062 17.117188 8.207031 24h-112.414062c5.292969-6.882812 8.175781-15.316406 8.207031-24v-40h24v24.335938c0 13.253906 10.746094 24 24 24zm-8-24v-24.335938h16v24.335938c0 4.417968-3.582031 8-8 8s-8-3.582032-8-8zm120 39.664062h-24c-13.253906 0-24-10.746094-24-24v-40h48zm0-80h-344c-4.417969 0-8-3.582031-8-8v-88h352zm96 120c0 13.253906-10.746094 24-24 24h-32c-13.253906 0-24-10.746094-24-24v-8h80zm0-24h-80v-16h80zm-16-292v-.449219l12.695312 21.160157-20.695312 10.34375-16-8-16 8-20.695312-10.34375 12.421874-20.710938zm-38.671875-16 14.671875-24.457031 14.671875 24.457031zm22.671875 60.945312v215.054688h-16v-215.054688l8-4zm-32 0v215.054688h-16v-223.054688zm64 215.054688h-16v-215.054688l16-8zm32-72c0 4.417969-3.582031 8-8 8h-8v-96h16zm0-104h-16v-62.214844l-56-93.328125-56 93.328125v62.214844h-352v-216c0-4.417969 3.582031-8 8-8h464c4.417969 0 8 3.582031 8 8zm0 0"/><path d="m48 112h64v-64h-64zm16-48h32v32h-32zm0 0"/><path d="m48 208h64v-64h-64zm48-16h-20.6875l20.6875-20.6875zm-32-32h20.6875l-20.6875 20.6875zm0 0"/><path d="m128 112h64v-64h-64zm48-16h-20.6875l20.6875-20.6875zm-32-32h20.6875l-20.6875 20.6875zm0 0"/><path d="m128 208h64v-64h-64zm16-48h32v32h-32zm0 0"/><path d="m208 112h64v-64h-64zm16-48h32v32h-32zm0 0"/><path d="m208 208h64v-64h-64zm16-48h32v32h-32zm0 0"/></svg>