<?xml version="1.0" encoding="utf-8"?>
<!-- Generator: Adobe Illustrator 21.0.0, SVG Export Plug-In . SVG Version: 6.00 Build 0)  -->
<svg xmlns="http://www.w3.org/2000/svg" xmlns:xlink="http://www.w3.org/1999/xlink" version="1.1" id="Layer_1" x="0px" y="0px" viewBox="0 0 256 256" style="enable-background:new 0 0 256 256;" xml:space="preserve" width="512" height="512">
<style type="text/css">
	.st0{fill:#E9E9EA;}
	.st1{fill:#EA4647;}
	.st2{fill:#FC7783;}
	.st3{fill:#CAECFC;}
	.st4{fill:#ACDEF9;}
	.st5{fill:#B26E3B;}
	.st6{fill:#898989;}
	.st7{fill:#FFCD29;}
	.st8{fill:#55ACD5;}
	.st9{fill:#6DCC6D;}
	.st10{fill:#231F20;}
</style>
<g id="Layer_49">
	<path class="st0" d="M193.5,201.2c-2,2.6-4.4,5-7,7l7.9,7.9c0.2-3.8,3.2-6.8,7-7L193.5,201.2z"/>
	<path class="st1" d="M235.6,239.8L207,211.2c-2.9-2.9-7.6-2.9-10.5,0s-2.9,7.6,0,10.5l28.6,28.6c2.9,2.9,7.6,2.9,10.5,0   S238.5,242.7,235.6,239.8z"/>
	
		<rect x="201.1" y="218.1" transform="matrix(0.7071 -0.7071 0.7071 0.7071 -96.7093 212.8281)" class="st2" width="14.8" height="10.1"/>
	<path class="st3" d="M190.3,147.6c-15.8-15.8-41.4-15.8-57.3,0s-15.8,41.4,0,57.3c15.8,15.8,41.4,15.8,57.2,0   C206,189,206,163.4,190.3,147.6z"/>
	<circle class="st4" cx="161.6" cy="176.2" r="28.8"/>
	<path class="st5" d="M181,140.7V43.5c0-6.1-5-11.1-11.1-11.1h-31.6c2.8,3.2,2.6,8-0.6,10.9c-1.4,1.3-3.2,2-5.1,2H67.1   c-4.2,0-7.7-3.4-7.7-7.7c0-1.9,0.7-3.7,2-5.1H29.3c-6.1,0-11.1,5-11.1,11.1v197.8c0,6.1,5,11.1,11.1,11.1h140.6   c6.1,0,11.1-5,11.1-11.1v-29.5c-19.6,10.7-44.2,3.5-54.9-16.2s-3.5-44.2,16.2-54.9C154.3,134.1,168.9,134.1,181,140.7L181,140.7z"/>
	<path class="st0" d="M170.7,136.8V43.5c0-0.5-0.4-0.8-0.9-0.9h-31.6c-1.5,1.6-3.5,2.6-5.7,2.6H67.1c-2.2,0-4.3-0.9-5.7-2.6H29.3   c-0.5,0-0.8,0.4-0.9,0.9v197.8c0,0.5,0.4,0.8,0.9,0.9h111.2l25.7-25.7c-22.2,2.5-42.2-13.4-44.8-35.6   c-2.5-22.2,13.4-42.2,35.6-44.8C161.6,135.5,166.3,135.8,170.7,136.8L170.7,136.8z"/>
	<path class="st6" d="M62.5,114.8h10.1c2.6,0,4.7,2.1,4.7,4.7v10.1c0,2.6-2.1,4.7-4.7,4.7H62.5c-2.6,0-4.7-2.1-4.7-4.7v-10.1   C57.9,116.9,60,114.8,62.5,114.8z"/>
	<path class="st6" d="M62.5,173.8h10.1c2.6,0,4.7,2.1,4.7,4.7v10.1c0,2.6-2.1,4.7-4.7,4.7H62.5c-2.6,0-4.7-2.1-4.7-4.7v-10.1   C57.9,175.9,60,173.8,62.5,173.8z"/>
	<path class="st6" d="M95.4,114.8h10.1c2.6,0,4.7,2.1,4.7,4.7v10.1c0,2.6-2.1,4.7-4.7,4.7H95.4c-2.6,0-4.7-2.1-4.7-4.7v-10.1   C90.7,116.9,92.8,114.8,95.4,114.8z"/>
	<path class="st6" d="M95.4,173.8h10.1c2.6,0,4.7,2.1,4.7,4.7v10.1c0,2.6-2.1,4.7-4.7,4.7H95.4c-2.6,0-4.7-2.1-4.7-4.7v-10.1   C90.7,175.9,92.8,173.8,95.4,173.8z"/>
	<path class="st6" d="M128.3,114.8h10.1c2.6,0,4.7,2.1,4.7,4.7v10.1c0,2.6-2.1,4.7-4.7,4.7h-10.1c-2.6,0-4.7-2.1-4.7-4.7v-10.1   C123.6,116.9,125.7,114.8,128.3,114.8z"/>
	<path class="st7" d="M142.5,211.9h-1.1c-0.5,0-0.8,0.4-0.9,0.9v29.4l25.7-25.7C158,217.4,149.7,215.8,142.5,211.9z"/>
	<path class="st0" d="M99.8,6.8c-10.2,0-18.4,8.3-18.4,18.4v4.6h10.3v-4.6c0-4.5,3.7-8.2,8.2-8.2s8.2,3.7,8.2,8.2v4.6h10.3v-4.6   C118.3,15.1,110,6.8,99.8,6.8z"/>
	<path class="st6" d="M132.5,29.8H67.1c-4.2,0-7.7,3.4-7.7,7.7s3.4,7.7,7.7,7.7h65.4c4.2,0,7.7-3.4,7.7-7.7S136.8,29.8,132.5,29.8   L132.5,29.8z"/>
	<path class="st1" d="M220.2,103.8c-1.4,0-2.5,1.1-2.5,2.5s1.1,2.5,2.5,2.5s2.5-1.1,2.5-2.5C222.7,104.9,221.6,103.8,220.2,103.8z"/>
	<path class="st7" d="M220.2,185.9c-1.4,0-2.5,1.1-2.5,2.5s1.1,2.5,2.5,2.5s2.5-1.1,2.5-2.5C222.7,187.1,221.6,185.9,220.2,185.9z"/>
	<path class="st7" d="M39.2,15.8c-1.4,0-2.5,1.1-2.5,2.5c0,1.4,1.1,2.5,2.5,2.5s2.5-1.1,2.5-2.5l0,0C41.7,16.9,40.5,15.8,39.2,15.8z   "/>
	<path class="st8" d="M212.4,128.2c-3.8-0.7-6.8-3.7-7.5-7.5c0-0.1-0.1-0.2-0.2-0.1c-0.1,0-0.1,0.1-0.1,0.1   c-0.7,3.8-3.7,6.8-7.5,7.5c-0.1,0-0.2,0.1-0.1,0.2c0,0.1,0.1,0.1,0.1,0.1c3.8,0.7,6.8,3.7,7.5,7.5c0,0.1,0.1,0.2,0.2,0.1   c0.1,0,0.1-0.1,0.1-0.1c0.7-3.8,3.7-6.8,7.5-7.5c0.1,0,0.2-0.1,0.1-0.2C212.5,128.3,212.5,128.2,212.4,128.2z"/>
	<path class="st9" d="M63.2,4.3h-1.8V2.5c0-1.4-1.1-2.5-2.5-2.5s-2.5,1.1-2.5,2.5v1.8h-1.8c-1.4,0-2.5,1.1-2.5,2.5   c0,1.4,1.1,2.5,2.5,2.5h1.8v1.8c0,1.4,1.1,2.5,2.5,2.5s2.5-1.1,2.5-2.5V9.3h1.8c1.4,0,2.5-1.1,2.5-2.5S64.6,4.3,63.2,4.3L63.2,4.3z   "/>
	<path class="st10" d="M132.5,27.3H67.1c-5.6,0-10.2,4.6-10.2,10.2s4.6,10.2,10.2,10.2h65.4c5.6,0,10.2-4.6,10.2-10.2   S138.2,27.3,132.5,27.3L132.5,27.3z M132.5,42.7H67.1c-2.9,0-5.2-2.3-5.2-5.2s2.3-5.2,5.2-5.2h65.4c2.9,0,5.2,2.3,5.2,5.2   S135.4,42.7,132.5,42.7L132.5,42.7z"/>
	<path class="st10" d="M99.8,4.3c-11.6,0-20.9,9.4-20.9,20.9v4.6c0,1.4,1.1,2.5,2.5,2.5h10.3c1.4,0,2.5-1.1,2.5-2.5v-4.6   c0-3.1,2.5-5.7,5.7-5.7s5.7,2.5,5.7,5.7v4.6c0,1.4,1.1,2.5,2.5,2.5h10.3c1.4,0,2.5-1.1,2.5-2.5v-4.6C120.8,13.7,111.4,4.3,99.8,4.3   z M115.8,27.3h-5.3v-2.1c0-5.9-4.8-10.7-10.7-10.7s-10.7,4.8-10.7,10.7v2.1h-5.3v-2.1c0-8.8,7.1-15.9,15.9-15.9s15.9,7.1,15.9,15.9   L115.8,27.3z"/>
	<path class="st10" d="M129.1,42.7c-1.4,0-2.5,1.1-2.5,2.5v6.9c0,2.1-1.7,3.8-3.8,3.8H76.9c-2.1,0-3.8-1.7-3.8-3.8v-6.9   c0-1.4-1.1-2.5-2.5-2.5s-2.5,1.1-2.5,2.5v6.9c0,4.8,3.9,8.8,8.8,8.8h45.9c4.8,0,8.8-3.9,8.8-8.8v-6.9   C131.6,43.8,130.5,42.7,129.1,42.7z"/>
	<path class="st10" d="M87.8,85.8H56.7c-1.4,0-2.5,1.1-2.5,2.5s1.1,2.5,2.5,2.5h31.1c1.4,0,2.5-1.1,2.5-2.5S89.2,85.8,87.8,85.8z"/>
	<path class="st10" d="M131,99H56.7c-1.4,0-2.5,1.1-2.5,2.5s1.1,2.5,2.5,2.5H131c1.4,0,2.5-1.1,2.5-2.5S132.3,99,131,99z"/>
	<path class="st10" d="M87.8,144.9H56.7c-1.4,0-2.5,1.1-2.5,2.5s1.1,2.5,2.5,2.5h31.1c1.4,0,2.5-1.1,2.5-2.5S89.2,144.9,87.8,144.9z   "/>
	<path class="st10" d="M110.1,158.1H56.7c-1.4,0-2.5,1.1-2.5,2.5s1.1,2.5,2.5,2.5h53.5c1.4,0,2.5-1.1,2.5-2.5   S111.5,158.1,110.1,158.1L110.1,158.1z"/>
	<path class="st10" d="M72.6,112.3H62.5c-4,0-7.2,3.2-7.2,7.2v10.1c0,4,3.2,7.2,7.2,7.2h10.1c4,0,7.2-3.2,7.2-7.2v-10.1   C79.8,115.5,76.6,112.3,72.6,112.3z M74.8,129.5c0,1.2-1,2.2-2.2,2.2H62.5c-1.2,0-2.2-1-2.2-2.2v-10.1c0-1.2,1-2.2,2.2-2.2h10.1   c1.2,0,2.2,1,2.2,2.2V129.5z"/>
	<path class="st10" d="M72.6,171.3H62.5c-4,0-7.2,3.2-7.2,7.2v10.1c0,4,3.2,7.2,7.2,7.2h10.1c4,0,7.2-3.2,7.2-7.2v-10.1   C79.8,174.6,76.6,171.3,72.6,171.3z M74.8,188.6c0,1.2-1,2.2-2.2,2.2H62.5c-1.2,0-2.2-1-2.2-2.2v-10.1c0-1.2,1-2.2,2.2-2.2h10.1   c1.2,0,2.2,1,2.2,2.2V188.6z"/>
	<path class="st10" d="M105.5,112.3H95.4c-4,0-7.2,3.2-7.2,7.2v10.1c0,4,3.2,7.2,7.2,7.2h10.1c4,0,7.2-3.2,7.2-7.2v-10.1   C112.6,115.5,109.4,112.3,105.5,112.3z M107.6,129.5c0,1.2-1,2.2-2.2,2.2H95.4c-1.2,0-2.2-1-2.2-2.2v-10.1c0-1.2,1-2.2,2.2-2.2   h10.1c1.2,0,2.2,1,2.2,2.2V129.5z"/>
	<path class="st10" d="M105.5,171.3H95.4c-4,0-7.2,3.2-7.2,7.2v10.1c0,4,3.2,7.2,7.2,7.2h10.1c4,0,7.2-3.2,7.2-7.2v-10.1   C112.6,174.6,109.4,171.3,105.5,171.3z M107.6,188.6c0,1.2-1,2.2-2.2,2.2H95.4c-1.2,0-2.2-1-2.2-2.2v-10.1c0-1.2,1-2.2,2.2-2.2   h10.1c1.2,0,2.2,1,2.2,2.2V188.6z"/>
	<path class="st10" d="M138.4,112.3h-10.1c-4,0-7.2,3.2-7.2,7.2v10.1c0,4,3.2,7.2,7.2,7.2h10.1c4,0,7.2-3.2,7.2-7.2v-10.1   C145.5,115.5,142.3,112.3,138.4,112.3z M140.5,129.5c0,1.2-1,2.2-2.2,2.2h-10.1c-1.2,0-2.2-1-2.2-2.2v-10.1c0-1.2,1-2.2,2.2-2.2   h10.1c1.2,0,2.2,1,2.2,2.2V129.5z"/>
	<path class="st10" d="M179.8,142.9c1.2,0.7,2.7,0.2,3.4-1c0.2-0.4,0.3-0.8,0.3-1.2V43.5c0-7.5-6.1-13.6-13.6-13.6h-31.6   c-1.4,0-2.5,1.1-2.5,2.5c0,0.6,0.2,1.2,0.6,1.7c1.9,2.1,1.7,5.4-0.4,7.3c-1,0.9-2.2,1.3-3.5,1.3H67.1c-2.9,0-5.2-2.3-5.2-5.2   c0-1.3,0.5-2.5,1.3-3.5c0.9-1,0.8-2.6-0.2-3.5c-0.5-0.4-1.1-0.6-1.7-0.6H29.3c-7.5,0-13.6,6.1-13.6,13.6v197.8   c0,7.5,6.1,13.6,13.6,13.6h140.6c7.5,0,13.6-6.1,13.6-13.6v-29.5c0-1.4-1.1-2.5-2.5-2.5c-0.4,0-0.8,0.1-1.2,0.3   c-14.8,8-33.1,5.3-45-6.5c-14.8-14.8-14.8-38.9,0-53.7C146.7,137.6,165,134.9,179.8,142.9z M118.7,176.2c0,11.4,4.5,22.3,12.6,30.4   c12.4,12.3,31.1,15.9,47.3,9.1v25.5c0,4.8-3.9,8.6-8.6,8.6H29.3c-4.8,0-8.6-3.9-8.6-8.6V43.5c0-4.8,3.9-8.6,8.6-8.6h28   c-1.5,5.4,1.8,11,7.2,12.5c0.9,0.2,1.7,0.3,2.6,0.3h65.4c5.6,0,10.2-4.6,10.2-10.2c0-0.9-0.1-1.8-0.3-2.6h27.5   c4.8,0,8.6,3.9,8.6,8.6v93.2c-16.1-6.8-34.8-3.2-47.3,9.1C123.2,153.9,118.6,164.8,118.7,176.2L118.7,176.2z"/>
	<path class="st10" d="M237.4,238l-28.6-28.6c-3.9-3.8-10.2-3.7-14,0.3c-3.7,3.8-3.7,9.9,0,13.8l28.6,28.6c3.9,3.9,10.1,3.9,14,0   l0,0C241.3,248.1,241.3,241.9,237.4,238z M233.9,248.5c-1.9,1.9-5,1.9-7,0l-28.6-28.6c-1.9-1.9-1.9-5,0-7c1.9-1.9,5-1.9,7,0   l28.6,28.6C235.8,243.5,235.8,246.6,233.9,248.5L233.9,248.5z"/>
	<path class="st10" d="M219.1,219.7l-7.1-7.1c-1-1-2.6-1-3.5,0L198,223.1c-1,1-1,2.6,0,3.5l7.1,7.1c1,1,2.6,1,3.5,0l10.5-10.5   C220.1,222.3,220.1,220.7,219.1,219.7C219.1,219.7,219.1,219.7,219.1,219.7L219.1,219.7z M206.9,228.4l-3.6-3.6l7-7l3.6,3.6   L206.9,228.4z"/>
	<path class="st10" d="M203.2,207.2l-7.9-7.9c-1-1-2.6-1-3.5,0c-0.1,0.1-0.1,0.1-0.2,0.2c-1.9,2.5-4.1,4.7-6.6,6.6   c-1.1,0.9-1.3,2.4-0.4,3.5c0.1,0.1,0.1,0.2,0.2,0.2l7.9,7.9c1,1,2.6,1,3.5,0c0.4-0.4,0.7-1,0.7-1.6c0.1-2.5,2.1-4.5,4.6-4.6   c1.4-0.1,2.4-1.3,2.4-2.6C203.9,208.3,203.6,207.7,203.2,207.2L203.2,207.2z M194.8,209.4c-0.6,0.6-1.1,1.2-1.5,1.9l-3-3   c0.6-0.6,1.2-1.1,1.8-1.7l0,0c0.6-0.6,1.1-1.2,1.7-1.8l3,3C196,208.3,195.4,208.8,194.8,209.4z"/>
	<path class="st10" d="M192,145.9c-16.8-16.8-44-16.8-60.8,0s-16.8,44,0,60.8c16.8,16.8,44,16.8,60.7,0c16.8-16.6,17-43.6,0.4-60.4   C192.3,146.1,192.2,146,192,145.9z M188.5,203.1c-14.8,14.8-38.9,14.8-53.7,0s-14.8-38.9,0-53.7c14.8-14.8,38.8-14.8,53.7,0   C203.3,164.2,203.3,188.3,188.5,203.1z"/>
	<path class="st10" d="M169.9,40.1h-31.6c-0.7,0-1.4,0.3-1.9,0.8c-1,1.1-2.4,1.7-3.9,1.7H67.1c-1.5,0-2.9-0.6-3.9-1.7   c-0.5-0.5-1.2-0.8-1.9-0.8H29.3c-1.9,0-3.4,1.5-3.4,3.4v197.8c0,1.9,1.5,3.4,3.4,3.4h111.2c0.7,0,1.3-0.3,1.8-0.7l25.7-25.7   c1-1,1-2.6,0-3.5c-0.5-0.5-1.3-0.8-2-0.7c-20.8,2.4-39.6-12.6-42-33.4c-2.4-20.8,12.6-39.6,33.4-42c4.3-0.5,8.7-0.2,12.9,0.7   c1.3,0.3,2.7-0.5,3-1.9c0-0.2,0.1-0.4,0.1-0.6V43.5C173.2,41.6,171.7,40.1,169.9,40.1z M168.2,133.8c-23.4-3.7-45.4,12.4-49.1,35.8   c-3.7,23.4,12.4,45.4,35.8,49.1c1.6,0.3,3.3,0.4,5,0.5l-20.5,20.5H30.9V45.1h29.5c1.9,1.6,4.3,2.6,6.7,2.6h65.4   c2.5,0,4.9-0.9,6.7-2.6h29V133.8z"/>
	<path class="st10" d="M168.4,215.4c-0.5-1-1.5-1.5-2.5-1.4c-7.7,0.9-15.5-0.6-22.3-4.3c-0.4-0.2-0.8-0.3-1.2-0.3h-1.1   c-1.9,0-3.4,1.5-3.4,3.4v29.4c0,1.4,1.1,2.5,2.5,2.5c0.7,0,1.3-0.3,1.8-0.7l25.7-25.7C168.7,217.5,168.9,216.3,168.4,215.4z    M143,236.1v-21.2c5.3,2.6,11.1,4,17,4.2L143,236.1z"/>
	<path class="st10" d="M161.6,144.9c-17.3,0-31.3,14-31.3,31.3s14,31.3,31.3,31.3c17.3,0,31.3-14,31.3-31.3   C193,158.9,178.9,144.9,161.6,144.9z M161.6,202.6c-14.6,0-26.3-11.8-26.3-26.3s11.8-26.3,26.3-26.3c14.6,0,26.3,11.8,26.3,26.3   C188,190.8,176.2,202.6,161.6,202.6L161.6,202.6z"/>
</g>
</svg>
