<?xml version="1.0" standalone="no"?><!-- Generator: Gravit.io --><svg xmlns="http://www.w3.org/2000/svg" xmlns:xlink="http://www.w3.org/1999/xlink" style="isolation:isolate" viewBox="0 0 329.822 160.668" width="329.822" height="160.668"><defs><clipPath id="_clipPath_56L63FBDn6K2CugC4CctQIxxkHXx8dJS"><rect width="329.822" height="160.668"/></clipPath></defs><g clip-path="url(#_clipPath_56L63FBDn6K2CugC4CctQIxxkHXx8dJS)"><clipPath id="_clipPath_IVQG0g6Z8ZyxqDvP20KXG0FCdQOKnGy9"><path d=" M 0 0 L 0 160.668 L 329.822 160.668 L 329.822 0 L 0 0 Z " fill="rgb(255,255,255)"/></clipPath><g clip-path="url(#_clipPath_IVQG0g6Z8ZyxqDvP20KXG0FCdQOKnGy9)"><path d=" M 0 108.022 L 12.161 99.563 C 16.743 106.082 23.617 109.079 32.076 109.079 C 41.063 109.079 45.117 106.082 45.117 101.149 C 45.117 95.157 39.656 94.276 27.141 90.75 C 16.215 87.755 5.287 82.644 5.287 68.016 C 5.287 53.212 17.097 46.162 31.725 46.162 C 43.533 46.162 51.814 51.096 57.456 57.265 L 47.056 67.487 C 43.533 63.433 38.42 60.261 31.725 60.261 C 25.027 60.261 21.325 62.729 21.325 67.135 C 21.325 72.774 25.907 74.008 37.54 77.004 C 49.171 80 61.86 84.582 61.86 100.267 C 61.86 112.958 54.107 123.354 33.133 123.354 C 16.215 123.354 4.936 115.953 0 108.022 Z " fill="rgb(49,172,223)"/></g><clipPath id="_clipPath_PGQhBzY929AgUyc9IU1RL69C6PGcXeEo"><path d=" M 0 0 L 0 160.668 L 329.822 160.668 L 329.822 0 L 0 0 Z " fill="rgb(255,255,255)"/></clipPath><g clip-path="url(#_clipPath_PGQhBzY929AgUyc9IU1RL69C6PGcXeEo)"><path d=" M 75.166 7.498 L 92.966 7.498 L 92.966 121.769 L 75.166 121.769 L 75.166 7.498 Z " fill="rgb(49,172,223)"/></g><clipPath id="_clipPath_fwe4kPnoChNuNbjWYw3cS7oNtHQaLSCK"><path d=" M 0 0 L 0 160.668 L 329.822 160.668 L 329.822 0 L 0 0 Z " fill="rgb(255,255,255)"/></clipPath><g clip-path="url(#_clipPath_fwe4kPnoChNuNbjWYw3cS7oNtHQaLSCK)"><path d=" M 106.273 17.377 C 106.273 10.68 111.737 5.745 118.08 5.745 C 124.426 5.745 129.89 10.68 129.89 17.377 C 129.89 24.425 124.426 29.184 118.08 29.184 C 111.737 29.184 106.273 24.425 106.273 17.377 Z " fill="rgb(249,165,53)"/></g><clipPath id="_clipPath_yX1RYo5z5YX4YMyu7AAoMjdEuZ8auh2G"><path d=" M 0 0 L 0 160.668 L 329.822 160.668 L 329.822 0 L 0 0 Z " fill="rgb(255,255,255)"/></clipPath><g clip-path="url(#_clipPath_yX1RYo5z5YX4YMyu7AAoMjdEuZ8auh2G)"><path d=" M 143.197 47.748 L 160.996 47.748 L 160.642 61.495 C 165.226 51.802 174.565 46.162 185.667 46.162 C 202.059 46.162 213.339 57.794 213.339 77.885 L 213.339 121.769 L 195.539 121.769 L 195.539 79.295 C 195.539 68.721 190.603 62.553 180.206 62.553 C 168.573 62.553 160.996 69.602 160.996 81.586 L 160.996 121.769 L 143.197 121.769 L 143.197 47.748 Z " fill="rgb(49,172,223)"/></g><clipPath id="_clipPath_5ZlmVe8sBp8V7soJyfdsmf0gZoP6sodT"><path d=" M 0 0 L 0 160.668 L 329.822 160.668 L 329.822 0 L 0 0 Z " fill="rgb(255,255,255)"/></clipPath><g clip-path="url(#_clipPath_5ZlmVe8sBp8V7soJyfdsmf0gZoP6sodT)"><path d=" M 135.892 5.674 C 138.386 8.86 139.641 12.941 139.641 18.054 C 139.641 22.282 138.566 26.069 136.591 29.255 C 141.422 27.567 144.892 22.982 144.892 17.576 C 144.892 11.912 141.084 7.147 135.892 5.674 Z " fill="rgb(249,165,53)"/></g><clipPath id="_clipPath_ah7OVpXqQWj0o0dQ3nAfgXXo2ZrrTuDi"><path d=" M 0 0 L 0 160.668 L 329.822 160.668 L 329.822 0 L 0 0 Z " fill="rgb(255,255,255)"/></clipPath><g clip-path="url(#_clipPath_ah7OVpXqQWj0o0dQ3nAfgXXo2ZrrTuDi)"><path d=" M 147.05 2.064 C 150.307 6.225 151.946 11.555 151.946 18.235 C 151.946 23.757 150.543 28.705 147.962 32.866 C 154.272 30.661 158.807 24.672 158.807 17.61 C 158.807 10.211 153.832 3.987 147.05 2.064 Z " fill="rgb(249,165,53)"/></g><clipPath id="_clipPath_cowiQHsMTgifeoIkMDq2OCKFFpkXLyQ4"><path d=" M 0 0 L 0 160.668 L 329.822 160.668 L 329.822 0 L 0 0 Z " fill="rgb(255,255,255)"/></clipPath><g clip-path="url(#_clipPath_cowiQHsMTgifeoIkMDq2OCKFFpkXLyQ4)"><path d=" M 160.964 0 C 164.657 4.719 166.516 10.764 166.516 18.338 C 166.516 24.6 164.925 30.21 161.998 34.929 C 169.154 32.429 174.296 25.638 174.296 17.629 C 174.296 9.239 168.654 2.181 160.964 0 Z " fill="rgb(249,165,53)"/></g><clipPath id="_clipPath_dfErjvwhXkued5KgyW5YLDfj2WhtdC74"><path d=" M 0 0 L 0 160.668 L 329.822 160.668 L 329.822 0 L 0 0 Z " fill="rgb(255,255,255)"/></clipPath><g clip-path="url(#_clipPath_dfErjvwhXkued5KgyW5YLDfj2WhtdC74)"><path d=" M 263.498 107.67 C 250.632 107.67 242.527 98.505 242.527 84.582 C 242.527 71.188 250.632 62.023 263.498 62.023 C 276.54 62.023 285.001 71.188 285.001 84.582 C 285.001 98.505 276.54 107.67 263.498 107.67 Z  M 268.404 160.668 C 289.381 160.246 302.273 147.856 302.273 122.826 L 302.273 47.748 L 284.47 47.748 L 285.001 61.495 C 280.243 52.507 271.606 46.162 258.566 46.162 C 239.707 46.162 224.197 62.2 224.197 84.582 C 224.197 106.965 239.707 123.354 258.917 123.354 C 271.253 123.354 280.065 117.363 284.47 109.079 L 284.47 121.944 C 284.47 137 279.123 145.348 268.803 145.348 L 267.632 145.348 L 234.554 145.348 L 234.554 160.668 L 268.404 160.668 Z " fill="rgb(49,172,223)"/></g><clipPath id="_clipPath_F7VAaOxQNsENWYHHXj2TIfYhaIIQlAgf"><path d=" M 0 0 L 0 160.668 L 329.822 160.668 L 329.822 0 L 0 0 Z " fill="rgb(255,255,255)"/></clipPath><g clip-path="url(#_clipPath_F7VAaOxQNsENWYHHXj2TIfYhaIIQlAgf)"><path d=" M 109.093 47.748 L 127.069 47.748 L 127.069 121.769 L 109.093 121.769 L 109.093 47.748 Z " fill="rgb(49,172,223)"/></g><clipPath id="_clipPath_5BSsv9sXGOfQUzaOOgXSpjXk1XS6JWMH"><path d=" M 0 0 L 0 160.668 L 329.822 160.668 L 329.822 0 L 0 0 Z " fill="rgb(255,255,255)"/></clipPath><g clip-path="url(#_clipPath_5BSsv9sXGOfQUzaOOgXSpjXk1XS6JWMH)"><path d=" M 14.082 159.832 L 11.794 159.832 L 11.794 147.794 L 7.676 147.794 L 7.676 145.831 L 18.2 145.831 L 18.2 147.794 L 14.082 147.794 L 14.082 159.832 Z " fill="rgb(49,172,223)"/></g><clipPath id="_clipPath_hhfr0EEPlnEy0iPdf52dZftQMQoTcDI3"><path d=" M 0 0 L 0 160.668 L 329.822 160.668 L 329.822 0 L 0 0 Z " fill="rgb(255,255,255)"/></clipPath><g clip-path="url(#_clipPath_hhfr0EEPlnEy0iPdf52dZftQMQoTcDI3)"><path d=" M 39.662 159.832 L 31.743 159.832 L 31.743 145.831 L 39.662 145.831 L 39.662 147.765 L 34.031 147.765 L 34.031 151.577 L 39.308 151.577 L 39.308 153.492 L 34.031 153.492 L 34.031 157.888 L 39.662 157.888 L 39.662 159.832 Z " fill="rgb(49,172,223)"/></g><clipPath id="_clipPath_EUopHe0U3aTF4n1lhqe8n8x7I3XCJi0c"><path d=" M 0 0 L 0 160.668 L 329.822 160.668 L 329.822 0 L 0 0 Z " fill="rgb(255,255,255)"/></clipPath><g clip-path="url(#_clipPath_EUopHe0U3aTF4n1lhqe8n8x7I3XCJi0c)"><path d=" M 53.909 159.832 L 53.909 145.831 L 56.198 145.831 L 56.198 157.869 L 62.126 157.869 L 62.126 159.832 L 53.909 159.832 Z " fill="rgb(49,172,223)"/></g><clipPath id="_clipPath_nTCPNkUhGbj1vQr6N3q3XmxufrHj2ByD"><path d=" M 0 0 L 0 160.668 L 329.822 160.668 L 329.822 0 L 0 0 Z " fill="rgb(255,255,255)"/></clipPath><g clip-path="url(#_clipPath_nTCPNkUhGbj1vQr6N3q3XmxufrHj2ByD)"><path d=" M 83.726 159.832 L 75.807 159.832 L 75.807 145.831 L 83.726 145.831 L 83.726 147.765 L 78.095 147.765 L 78.095 151.577 L 83.372 151.577 L 83.372 153.492 L 78.095 153.492 L 78.095 157.888 L 83.726 157.888 L 83.726 159.832 Z " fill="rgb(49,172,223)"/></g><clipPath id="_clipPath_q03p66CTYo09TF37m1aDTvbbnD9nZxd6"><path d=" M 0 0 L 0 160.668 L 329.822 160.668 L 329.822 0 L 0 0 Z " fill="rgb(255,255,255)"/></clipPath><g clip-path="url(#_clipPath_q03p66CTYo09TF37m1aDTvbbnD9nZxd6)"><path d=" M 106.623 145.831 L 108.998 145.831 L 104.095 159.832 L 101.681 159.832 L 96.797 145.831 L 99.153 145.831 L 102.074 154.536 C 102.228 154.951 102.39 155.485 102.563 156.14 C 102.735 156.794 102.846 157.28 102.897 157.6 C 102.981 157.115 103.108 156.553 103.281 155.915 C 103.453 155.276 103.594 154.804 103.702 154.497 L 106.623 145.831 Z " fill="rgb(49,172,223)"/></g><clipPath id="_clipPath_BA5EGysVAJh1giIByXYJaCYnmP7lK0Tr"><path d=" M 0 0 L 0 160.668 L 329.822 160.668 L 329.822 0 L 0 0 Z " fill="rgb(255,255,255)"/></clipPath><g clip-path="url(#_clipPath_BA5EGysVAJh1giIByXYJaCYnmP7lK0Tr)"><path d=" M 122.401 159.832 L 122.401 145.831 L 124.69 145.831 L 124.69 159.832 L 122.401 159.832 Z " fill="rgb(49,172,223)"/></g><clipPath id="_clipPath_b919hJb7RavEsU6vyFH6J5JUdcIz7doD"><path d=" M 0 0 L 0 160.668 L 329.822 160.668 L 329.822 0 L 0 0 Z " fill="rgb(255,255,255)"/></clipPath><g clip-path="url(#_clipPath_b919hJb7RavEsU6vyFH6J5JUdcIz7doD)"><path d=" M 147.885 156.03 C 147.885 157.275 147.435 158.251 146.535 158.96 C 145.634 159.669 144.393 160.023 142.809 160.023 C 141.226 160.023 139.93 159.777 138.921 159.286 L 138.921 157.122 C 139.559 157.422 140.238 157.658 140.956 157.831 C 141.675 158.002 142.343 158.089 142.962 158.089 C 143.869 158.089 144.538 157.917 144.969 157.572 C 145.4 157.227 145.615 156.764 145.615 156.183 C 145.615 155.66 145.418 155.216 145.022 154.852 C 144.626 154.488 143.809 154.057 142.57 153.559 C 141.293 153.042 140.393 152.451 139.869 151.788 C 139.346 151.123 139.084 150.325 139.084 149.393 C 139.084 148.225 139.5 147.305 140.329 146.636 C 141.159 145.965 142.273 145.63 143.671 145.63 C 145.012 145.63 146.346 145.923 147.674 146.511 L 146.947 148.378 C 145.701 147.855 144.59 147.593 143.613 147.593 C 142.873 147.593 142.311 147.754 141.929 148.076 C 141.545 148.398 141.354 148.824 141.354 149.355 C 141.354 149.719 141.43 150.031 141.583 150.289 C 141.736 150.547 141.989 150.792 142.34 151.021 C 142.691 151.252 143.323 151.554 144.236 151.931 C 145.265 152.359 146.018 152.758 146.496 153.128 C 146.975 153.498 147.326 153.916 147.55 154.383 C 147.774 154.849 147.885 155.398 147.885 156.03 Z " fill="rgb(49,172,223)"/></g><clipPath id="_clipPath_KNw4K5Kyg9ihsZdrwLQu07bsKtMn3Y1z"><path d=" M 0 0 L 0 160.668 L 329.822 160.668 L 329.822 0 L 0 0 Z " fill="rgb(255,255,255)"/></clipPath><g clip-path="url(#_clipPath_KNw4K5Kyg9ihsZdrwLQu07bsKtMn3Y1z)"><path d=" M 161.919 159.832 L 161.919 145.831 L 164.208 145.831 L 164.208 159.832 L 161.919 159.832 Z " fill="rgb(49,172,223)"/></g><clipPath id="_clipPath_I949heEsJla9UEaaFlWznYRLnKrnDkZG"><path d=" M 0 0 L 0 160.668 L 329.822 160.668 L 329.822 0 L 0 0 Z " fill="rgb(255,255,255)"/></clipPath><g clip-path="url(#_clipPath_I949heEsJla9UEaaFlWznYRLnKrnDkZG)"><path d=" M 180.962 152.812 C 180.962 154.536 181.311 155.843 182.006 156.733 C 182.703 157.625 183.733 158.07 185.099 158.07 C 186.459 158.07 187.486 157.63 188.178 156.748 C 188.872 155.867 189.217 154.555 189.217 152.812 C 189.217 151.094 188.875 149.791 188.187 148.905 C 187.502 148.017 186.478 147.574 185.119 147.574 C 183.746 147.574 182.71 148.017 182.011 148.905 C 181.312 149.791 180.962 151.094 180.962 152.812 Z  M 191.65 152.812 C 191.65 155.092 191.08 156.863 189.941 158.127 C 188.8 159.391 187.187 160.023 185.099 160.023 C 182.987 160.023 181.363 159.396 180.229 158.141 C 179.097 156.887 178.53 155.103 178.53 152.793 C 178.53 150.481 179.1 148.707 180.239 147.468 C 181.379 146.23 183.006 145.611 185.119 145.611 C 187.201 145.611 188.809 146.239 189.945 147.498 C 191.082 148.755 191.65 150.526 191.65 152.812 Z " fill="rgb(49,172,223)"/></g><clipPath id="_clipPath_ixzmsX78AV6uC07LI25TNeSt9m3dNBwn"><path d=" M 0 0 L 0 160.668 L 329.822 160.668 L 329.822 0 L 0 0 Z " fill="rgb(255,255,255)"/></clipPath><g clip-path="url(#_clipPath_ixzmsX78AV6uC07LI25TNeSt9m3dNBwn)"><path d=" M 217.589 159.832 L 214.783 159.832 L 207.897 148.675 L 207.821 148.675 L 207.869 149.297 C 207.958 150.485 208.002 151.57 208.002 152.554 L 208.002 159.832 L 205.924 159.832 L 205.924 145.831 L 208.701 145.831 L 215.568 156.93 L 215.625 156.93 C 215.612 156.782 215.587 156.248 215.549 155.326 C 215.511 154.403 215.491 153.684 215.491 153.167 L 215.491 145.831 L 217.589 145.831 L 217.589 159.832 Z " fill="rgb(49,172,223)"/></g><clipPath id="_clipPath_gNYgifNpssUhEPLnzCos5nG8wzInC453"><path d=" M 0 0 L 0 160.668 L 329.822 160.668 L 329.822 0 L 0 0 Z " fill="rgb(255,255,255)"/></clipPath><g clip-path="url(#_clipPath_gNYgifNpssUhEPLnzCos5nG8wzInC453)"><path d=" M 323.805 57.651 L 321.083 50.078 L 320.974 50.078 L 321.056 51.825 L 321.056 57.651 L 319.444 57.651 L 319.444 47.883 L 321.977 47.883 L 324.632 55.456 L 327.383 47.883 L 329.822 47.883 L 329.822 57.651 L 328.101 57.651 L 328.101 51.961 L 328.182 50.104 L 328.074 50.104 L 325.216 57.651 L 323.805 57.651 Z  M 315.677 57.651 L 314.01 57.651 L 314.01 49.319 L 311.178 49.319 L 311.178 47.883 L 318.536 47.883 L 318.536 49.319 L 315.677 49.319 L 315.677 57.651 Z " fill="rgb(49,172,223)"/></g></g></svg>