<svg width="41" height="41" viewBox="0 0 41 41" fill="none" xmlns="http://www.w3.org/2000/svg">
<g clip-path="url(#clip0)">
<path d="M34.3201 0.755859H5.96036C2.72049 0.755859 0.0847168 3.38434 0.0847168 6.61523V34.8965C0.0847168 38.1274 2.72049 40.7559 5.96036 40.7559H34.3201C37.56 40.7559 40.1958 38.1274 40.1958 34.8965V6.61523C40.1958 3.38434 37.56 0.755859 34.3201 0.755859ZM37.8455 34.8965C37.8455 36.835 36.264 38.4121 34.3201 38.4121H5.96036C4.0165 38.4121 2.43497 36.835 2.43497 34.8965V6.61523C2.43497 4.67676 4.0165 3.09961 5.96036 3.09961H34.3201C36.264 3.09961 37.8455 4.67676 37.8455 6.61523V34.8965Z" fill="#070707" stroke="#070707" stroke-width="0.5"/>
<path d="M18.9651 17.2402C18.9651 14.6554 16.8566 12.5527 14.2646 12.5527H7.21387V28.959H14.2646C16.8566 28.959 18.9651 26.8563 18.9651 24.2715C18.9651 22.8726 18.3467 21.6155 17.3686 20.7559C18.3467 19.8962 18.9651 18.6392 18.9651 17.2402ZM16.6149 24.2715C16.6149 25.5639 15.5606 26.6152 14.2646 26.6152H9.56412V21.9277H14.2646C15.5606 21.9277 16.6149 22.9791 16.6149 24.2715ZM9.56412 19.584V14.8965H14.2646C15.5606 14.8965 16.6149 15.9478 16.6149 17.2402C16.6149 18.5327 15.5606 19.584 14.2646 19.584H9.56412Z" fill="#070707" stroke="#070707" stroke-width="0.5"/>
<path d="M27.1911 17.2402C23.9512 17.2402 21.3154 19.8687 21.3154 23.0996C21.3154 26.3305 23.9512 28.959 27.1911 28.959C29.2821 28.959 31.2321 27.8369 32.2799 26.0302L30.2455 24.8565C29.6163 25.9414 28.4458 26.6152 27.1911 26.6152C25.6588 26.6152 24.3521 25.6356 23.867 24.2715H33.0667V23.0996C33.0667 19.8687 30.4309 17.2402 27.1911 17.2402ZM23.867 21.9277C24.3521 20.5636 25.6588 19.584 27.1911 19.584C28.7233 19.584 30.03 20.5636 30.5151 21.9277H23.867Z" fill="#070707" stroke="#070707" stroke-width="0.5"/>
<path d="M22.4905 12.5527H31.8915V14.8965H22.4905V12.5527Z" fill="#070707" stroke="#070707" stroke-width="0.5"/>
</g>
<defs>
<clipPath id="clip0">
<rect width="40.111" height="40" fill="white" transform="translate(0.0847168 0.755859)"/>
</clipPath>
</defs>
</svg>
