<svg width="40" height="41" viewBox="0 0 40 41" fill="none" xmlns="http://www.w3.org/2000/svg">
<path d="M30.6636 7.65775L30.9693 7.27351L30.5907 6.96087C27.6753 4.55373 23.9726 3.11584 19.9218 3.11584C18.5026 3.11584 17.1267 3.31465 15.8239 3.64036L15.0968 3.82215L15.5439 4.42371C16.9345 6.29458 18.9322 9.12014 21.3246 13.5455L21.5312 13.9276L21.9385 13.7764C26.4658 12.0953 29.1786 9.5239 30.6636 7.65775ZM13.3633 4.89998L13.1183 4.57719L12.7517 4.75008C8.2556 6.87091 4.84923 10.9218 3.50458 15.8687L3.3385 16.4797L3.97134 16.4996C6.44724 16.5775 12.3654 16.4608 18.9231 14.7041L19.5416 14.5384L19.2309 13.9785C16.6875 9.3948 14.5485 6.46126 13.3633 4.89998ZM32.8171 9.15896L32.4294 8.69832L32.0478 9.16405C30.3918 11.1853 27.5165 13.8106 22.9642 15.5919L22.4579 15.79L22.6976 16.278C23.6791 18.2761 24.6313 20.4054 25.4989 22.7049L25.6418 23.0838L26.0421 23.0227C29.3354 22.5198 32.3796 22.5198 34.679 22.6999C35.2381 22.7463 35.5988 22.7984 36.0187 22.859C36.1072 22.8718 36.1982 22.8849 36.2943 22.8985L36.8064 22.9707L36.8614 22.4566C36.9288 21.8259 36.9676 21.1927 36.9676 20.5381C36.9676 16.1845 35.3902 12.2161 32.8171 9.15896ZM20.6701 16.7863L20.485 16.4151L20.086 16.5285C12.3727 18.7198 5.57803 18.6528 3.46198 18.5674L2.98015 18.548L2.94327 19.0288L2.94069 19.0624C2.90413 19.5389 2.8666 20.028 2.8666 20.5477C2.8666 25.7814 5.13097 30.4535 8.70191 33.6504L9.07471 33.9841L9.40819 33.6111C10.3033 32.6098 11.5039 31.3345 12.9635 30.0032L12.9655 30.0014C15.7118 27.4697 19.2452 24.791 23.0942 23.6222L23.6111 23.4652L23.4147 22.962C22.5532 20.7542 21.6256 18.702 20.6701 16.7863ZM30.1596 24.6824L30.1542 24.6827C29.1431 24.7315 28.0668 24.8289 26.9723 24.9749L26.3775 25.0543L26.5628 25.625C27.4866 28.4688 28.2507 31.4814 28.7443 34.6152L28.8686 35.4041L29.5239 34.9477C32.71 32.7291 35.12 29.4321 36.2427 25.5618L36.408 24.9922L35.8186 24.9256C34.3586 24.7608 32.5073 24.5946 30.1596 24.6824ZM24.5036 25.8678L24.35 25.4144L23.8904 25.5481C20.509 26.5319 16.9721 29.0831 14.2917 31.5434C12.9965 32.7221 11.9505 33.8409 11.111 34.7573L10.6983 35.2079L11.2216 35.5233C13.7671 37.0577 16.723 37.9603 19.9124 37.9603C22.306 37.9603 24.5638 37.4546 26.6257 36.5636L26.9737 36.4132L26.9228 36.0375C26.4385 32.4637 25.5843 29.0575 24.5036 25.8678ZM0.867676 20.5381C0.867676 9.78487 9.43492 1.03906 19.9218 1.03906C30.4087 1.03906 38.9759 9.78487 38.9759 20.5381C38.9759 31.2913 30.4087 40.0371 19.9218 40.0371C9.43492 40.0371 0.867676 31.2913 0.867676 20.5381Z" fill="#070707" stroke="#070707"/>
</svg>
