<svg width="40" height="41" viewBox="0 0 40 41" fill="none" xmlns="http://www.w3.org/2000/svg">
<path d="M12.1663 1.04867H12.6663V1.03906H28.571C34.5356 1.03906 39.4181 6.02375 39.4181 12.1511V28.9251C39.4181 35.0527 34.5353 40.0371 28.5804 40.0371H12.1663C6.20035 40.0371 1.30981 35.0607 1.30981 28.9443V12.1607C1.30981 6.03391 6.20115 1.04867 12.1663 1.04867ZM3.31814 12.1693V12.1703V28.9539C3.31814 33.94 7.2457 37.9707 12.1663 37.9707H28.5804C33.4836 37.9707 37.4097 33.9386 37.4097 28.9347V12.1607C37.4097 7.15646 33.4833 3.12471 28.571 3.12471H12.1663C7.25349 3.12471 3.32807 7.15679 3.31814 12.1693ZM31.4025 8.23876C31.4025 7.64883 31.8565 7.20074 32.4067 7.20074C32.9568 7.20074 33.4108 7.64883 33.4108 8.23876C33.4108 8.82869 32.9568 9.27678 32.4067 9.27678C31.8565 9.27678 31.4025 8.82869 31.4025 8.23876ZM10.3442 20.5429C10.3442 14.8871 14.8689 10.2768 20.3733 10.2768C25.8778 10.2768 30.4025 14.8871 30.4025 20.5429C30.4025 26.1987 25.8778 30.809 20.3733 30.809C14.8689 30.809 10.3442 26.1987 10.3442 20.5429ZM28.3942 20.5429C28.3942 16.0093 24.834 12.3528 20.3733 12.3528C15.9127 12.3528 12.3525 16.0093 12.3525 20.5429C12.3525 25.0765 15.9127 28.733 20.3733 28.733C24.834 28.733 28.3942 25.0765 28.3942 20.5429Z" fill="#070707" stroke="#070707"/>
</svg>
