<svg id="Layer_1" data-name="Layer 1" xmlns="http://www.w3.org/2000/svg" viewBox="0 0 75 75"><defs><style>.cls-1{fill:#fff;}</style></defs><title>Artboard 2 copy 2</title><rect width="75" height="75"/><path class="cls-1" d="M24.63,51.53a54.53,54.53,0,0,0-1.24,5.67c-.2,1.39-.58,3.07-.58,3.84,0,.24.05.53.05.77a.85.85,0,0,1-.91.91c-.48,0-.39-1.25-.39-2a40.41,40.41,0,0,1,1.35-9.55,7.07,7.07,0,0,1,.72-2.55c0-.09-.15-.24-.15-.48a9.51,9.51,0,0,1,.87-2.35c.24-.62.28-2.06.53-3,.19-.72.47-1.35.67-2.07a.75.75,0,0,0-.53-.19h-1c-1.59,0-7.39-.38-7.39-2.83a.62.62,0,0,1,.14-.39c1.15,0,1.06,1.16,2.21,1.54,1.44.58,4,.38,5.57.38a8.93,8.93,0,0,0,1.15-.05,31.9,31.9,0,0,0,1.2-4c.53-1.92,1.15-3.65,1.68-5.81A12.72,12.72,0,0,1,29,27.53a12.68,12.68,0,0,0,1.2-4.32v-.48c0-.72.28-.91.33-1.39S30.4,19,31.4,19c.58,0,.82.72,1.35.86A17.5,17.5,0,0,1,32,23.64c-.1.19-.24.24-.34.43-.19.63-.14,1.35-.38,2-.1.43-.39.77-.48,1.15.05,0,.14,0,.14.1,0-.38-.72,2.78-1.34,4.7-.1.39-.39.72-.48,1.16s-.1.81-.24,1.24c-.34,1.49-1,3-1.3,4.57h.14c.72,0,1.35-.48,2.07-.48h.91c.72,0,1.49-.48,2-.48.24,0,.38.19.62.19,1.83,0,4.8-1.25,6.1-1.44,1-.15,1.77-.43,2.78-.68.29,0,.67,0,1,0a57.63,57.63,0,0,0,8.54-2.64,6.29,6.29,0,0,1,1.64-.82c.09,0,.19.1.29.1S54.83,32,55,32h.34c.24,0,.43-.33.72-.57a40.91,40.91,0,0,0,4.56-3.07c.48-.39,1-.63,1.34-1s.34-.63.63-1c.09-.15.38-.2.43-.29s.1-.43.19-.58a5.37,5.37,0,0,0,1.54-3.41,4.79,4.79,0,0,0-2-3.79,3.26,3.26,0,0,1-.86-.43c-.1-.1-.1-.29-.15-.29h-.19c-2.78-2.06-8.93-3.84-14.74-3.84-.38,0-.43.19-.62.19-.58-.05-1.92-.19-3-.19-4.75,0-7.58.87-11.71,1.83a35,35,0,0,0-3.94,1.1,61.91,61.91,0,0,0-9.31,4.32,23.77,23.77,0,0,0-6.1,4.22c-.81.63-1.1,1.44-1.63,1.73.05.48.24.77.24,1.15a1.77,1.77,0,0,1-.14.58,1.94,1.94,0,0,1-1.92-2c0-1.15,1.05-2,2-2.73.43-.39,2-2.12,2.64-2.12.43,0,.28-.24.48-.28.48-.39,1.58-.92,2.49-1.54,0-.05.15-.24.19-.24h.2c.48,0,1.39-.82,1.77-1.06,2.69-1.29,4.18-1.92,8.07-3.55a4.43,4.43,0,0,0,.72-.09c.14-.05.24-.2.43-.25,1.49-.43,2.88-.67,4.61-1.1.33-.05.67-.29,1-.38.81-.2,1.63-.2,2.44-.34.44-.05,4.66-.82,6.05-.82h1.54a62.18,62.18,0,0,1,7.1.29,21.23,21.23,0,0,0,3.32.58h.38c.48,0,.53.29.81.33a11.84,11.84,0,0,1,1.59.25c.24,0,.48.33.72.48a4.17,4.17,0,0,1,.86.14c.39.19,1.11.82,1.54.82a1.92,1.92,0,0,0,.24-.05c.53,0,1.63,1.29,2.54,1.29v.1c0,.38.53.34.72.48s.39.91.68.91H64c.19,0,.09.39.19.43s.34.05.43.15c.34.24.24.62.63,1.2a5.32,5.32,0,0,1,1,2.78c0,2.21-1.49,4.27-2.93,5.71-.38.44-.86.68-1.24,1.11a7,7,0,0,1-2.74,1.87v.1c0,.48-.67.38-1,.57,0,.05,0,.24-.14.29a11.17,11.17,0,0,1-2.5,1.34,57.47,57.47,0,0,1-10.42,3.7,5.86,5.86,0,0,0-2.21.63A8.51,8.51,0,0,0,41,38a42.66,42.66,0,0,1-7,1.53c-2,.24-4.52,1-6.77,1C26.27,43.9,25.55,47.79,24.63,51.53Z"/></svg>