<svg id="Layer_1" data-name="Layer 1" xmlns="http://www.w3.org/2000/svg" viewBox="0 0 1078.56 369.53"><defs><style>.cls-1{fill:#231f20;stroke:#000;stroke-miterlimit:10;stroke-width:0.3px;}</style></defs><title>Artboard 2 copy 4</title><path class="cls-1" d="M113.29,189.62a236.52,236.52,0,0,0-5.23,23.75c-.81,5.84-2.42,12.89-2.42,16.11,0,1,.2,2.21.2,3.22a3.55,3.55,0,0,1-3.82,3.82c-2,0-1.61-5.23-1.61-8.25-.2-14.7,3-28.18,5.64-40.06,1-3.82.8-7.65,3-10.67,0-.4-.6-1-.6-2a39.56,39.56,0,0,1,3.62-9.86c1-2.62,1.21-8.66,2.22-12.68.8-3,2-5.64,2.81-8.66a3,3,0,0,0-2.21-.81h-4c-6.65,0-31-1.61-31-11.87a2.68,2.68,0,0,1,.61-1.61c4.83,0,4.43,4.83,9.26,6.44,6,2.41,16.71,1.61,23.35,1.61a39,39,0,0,0,4.83-.2c2.62-5.64,3.22-11.27,5-16.91,2.22-8,4.83-15.3,7-24.36A62.51,62.51,0,0,1,131.4,89c0,.6,5-11.08,5-18.12v-2c0-3,1.21-3.82,1.41-5.83.4-2.62-.41-9.86,3.82-9.86,2.42,0,3.42,3,5.64,3.62-.61,5.43-1.21,10.67-3,15.9-.4.8-1,1-1.41,1.81-.8,2.62-.6,5.64-1.61,8.25-.4,1.82-1.61,3.23-2,4.83.2,0,.6.21.6.41,0-1.61-3,11.67-5.63,19.73-.41,1.6-1.62,3-2,4.83-.6,1.61-.4,3.42-1,5.23-1.4,6.24-4,12.48-5.43,19.12h.61c3,0,5.63-2,8.65-2h3.82c3,0,6.24-2,8.46-2,1,0,1.61.8,2.62.8,7.65,0,20.12-5.23,25.56-6,4-.6,7.45-1.81,11.68-2.82,1.2-.2,2.81,0,4.22-.2,13.69-3.82,24.36-5.83,35.83-11.07,1.61-.8,5.23-3.42,6.84-3.42.41,0,.81.4,1.21.4.61,0,4.63-2.81,5.24-2.81h1.4c1,0,1.82-1.42,3-2.42,4.22-2.62,12.27-7.25,19.12-12.88,2-1.61,4.23-2.62,5.63-4,1-1,1.41-2.62,2.62-4,.4-.6,1.61-.8,1.81-1.2.61-.61.41-1.81.81-2.42,2.41-3.42,6.44-7.25,6.44-14.29a20.12,20.12,0,0,0-8.26-15.9,15.31,15.31,0,0,1-3.62-1.81c-.4-.41-.4-1.21-.6-1.21h-.81c-11.67-8.66-37.44-16.1-61.79-16.1-1.61,0-1.82.8-2.62.8-2.41-.2-8-.8-12.48-.8-19.93,0-31.8,3.62-49.11,7.64a154.07,154.07,0,0,0-16.51,4.63,259.69,259.69,0,0,0-39,18.12c.4-.4-10.87,4.63-25.56,17.71-3.43,2.62-4.64,6-6.85,7.25.2,2,1,3.22,1,4.83A6.83,6.83,0,0,1,54.51,94c-4.63-.41-8-3.43-8-8.26s4.43-8.45,8.26-11.47c1.81-1.61,8.45-8.86,11.07-8.86,1.81,0,1.2-1,2-1.2,2-1.61,6.64-3.83,10.47-6.45.2-.2.6-1,.8-1h.8c2,0,5.84-3.42,7.45-4.43,11.28-5.44,17.52-8.05,33.82-14.89a15.66,15.66,0,0,0,3-.41c.6-.2,1-.8,1.81-1,6.24-1.81,12.08-2.81,19.32-4.62,1.41-.21,2.82-1.21,4.23-1.61,3.42-.81,6.85-.81,10.27-1.41,1.81-.21,19.53-3.43,25.36-3.43h6.44c7.65,0,20.13,0,29.79,1.21,4.43.81,9.67,2.42,13.89,2.42h1.61c2,0,2.22,1.21,3.42,1.41,2.42.6,4.84.2,6.65,1,1,.2,2,1.41,3,2a23,23,0,0,1,3.62.6c1.61.81,4.63,3.42,6.44,3.42a8.48,8.48,0,0,0,1-.2c2.21,0,6.84,5.44,10.66,5.44v.4c0,1.61,2.22,1.41,3,2,.6.61,1.61,3.83,2.81,3.83h.81c.8,0,.4,1.61.8,1.81.4.4,1.41.2,1.82.6,1.41,1,1,2.62,2.61,5,2.62,4,4.43,7.85,4.43,11.68,0,9.26-6.24,17.91-12.28,24-1.61,1.81-3.62,2.82-5.23,4.63-2.21,2.42-7.65,7-11.47,7.85v.4c0,2-2.82,1.61-4,2.42-.2.2-.2,1-.6,1.21-1.21,1.41-5.44,3.22-10.47,5.63a241.6,241.6,0,0,1-43.68,15.5c-3.22.81-6.44.61-9.26,2.62a35.51,35.51,0,0,0-9.06.8c-1.41,0-7.45,3.22-29.39,6.45-8.25,1-18.92,4.22-28.38,4.22C120.14,157.61,117.11,173.92,113.29,189.62Z"/><path class="cls-1" d="M315,171.3c-1.41,1.61-2.82,3-5.24,3.42-5.83,7.45-12.88,11.68-22.54,19.33-5.84,4.43-12.28,9.26-20.53,14.69-4,2-8.06,5.84-13.29,5.84-10.06,0-15.09-6.24-15.09-13.89,0-5.84,2.41-12.48,4.63-17.71.6-1.81,2.41-5,2.41-5.64,0-.4-.2-.81-.2-1.21,0-1.2,1.21-1,1.41-1.41,1.41-2.61,5.23-17.71,8.86-17.71,3.42,0,4.22,2.82,6.24,4.43-1,3.82-3,7.45-4.63,11.67-.41,1-2.42,1.61-2.42,2.62,0,.4.2.8.2,1.41a20.58,20.58,0,0,1-1.41,6.44c-.6,1.61-2.41,2.82-3,4.43a44.92,44.92,0,0,0-2.61,13.69c0,5.63,2.81,4.63,5.83,4.63a15.81,15.81,0,0,0,8.26-2.62c.8-.4.2-1.41,1-1.41H264c5.64-3.62,13.69-7.65,19.12-12.88,6.65-6.24,16.11-11.88,23.56-18.32,4-3.62,8.65-6.24,14.29-10.67,1.21-.8,1.81.2,3-1.2.4,0,.4.6.4,1.2,0,1-.2,2.42-.2,2.62h.4c0,.4-3.42,2.41-3.42,3h.2C318.79,170.09,316.58,169.09,315,171.3Zm-32.21-31.4c-4.83-2-10.67-3-10.67-9.86a4,4,0,0,1,2.62-.81c3.22,0,11.07,3.63,11.07,6.85C285.78,138.89,283.37,138.09,282.76,139.9Z"/><path class="cls-1" d="M364.88,194.45c0-2.21,2.22-4.43,2.22-7.25,0-1-.41-2.41-.41-3.42,0-1.81,2.22-3.62,2.22-5.43,0-.81-.21-1.61-.21-2.62,0-2.21,1.61-1.41,1.61-3.42,0-.4-.6-.81-.6-1.61,0-2.22,1.81-6,2.62-9.26-.4,0-.2-.81-.2-2.21a14.31,14.31,0,0,0-.2-3c-3.83.2-5.64,2.41-8.26,3.82-7,6-16.3,11.47-25.76,20.13a10.15,10.15,0,0,1-1.61,1.41c-1.41,1.41-13.49,15.3-18.32,15.7a14.26,14.26,0,0,1-3.82-4l11.67-42.47c3.22,1.21,7,1.61,7.85,4.83-2.21,8.26-6,14.49-7.25,23.55a72.31,72.31,0,0,0,9.67-8.05c1.21-1,2.21-1,3.42-1.81,10.67-10.67,8.85-5.84,13.48-9.86,5-3.83,13.09-11.48,20.54-11.48,5.23,0,8.65,3.63,8.65,9.06-1,6,.2,7.65-2.61,11.07-.21,3.62-1.42,8.25-2.82,12.88-1.41,4.23-2.22,9.26-4.43,11.68a6.8,6.8,0,0,1,1,3.82c0,1.81-.61,3.83-.61,5.44,1,5.43,6,7.65,10.47,7.65,7.45,0,15.09-6.24,21.94-9.26,8.65-4,11.07-6.85,19.12-12.48,2-1.41,5-1.61,7.05-3,1-.81,1.21-3,2.41-3.83,3-2,5-3.82,9.86-7.85,1-.6,2.82-.8,3.83-1.41,4-3.22,6.24-4,10.06-7.24,2.42-2,7.25-6.85,8-6.85.61,0,.81,2.42.81,3,0,3.23-2.41,3.63-3.82,5.44-.61.6-.61,2.21-1.21,2.61-2.22,2.22-9.26,3.43-10.27,6.65-11.47,5.84-11.87,8.85-23.55,16.91-3.42,2.21-2,2.21-5.43,4.43-.61.4-4.63,3-5.44,3H414.8c-3.42,0,1.61,1.82-8.25,5-1,.6-2.22,1.81-3.22,2.41-.61.2-2,.2-2.82.81-.61.6-.2,1.61-1.81,1.61-.81,0-1.61-.2-2.42-.2-3,0-3,2.21-5,3-4,1.2-4.23,2-5.64,2a25.21,25.21,0,0,0-5.43-.81c-2,0-3.42.61-4.83.61-3.22,0-4.63-3.22-8.46-7.25C366.09,205.72,364.88,198.27,364.88,194.45Z"/><path class="cls-1" d="M605.61,159.43c.2,0,.4.4.6.6a3.51,3.51,0,0,0-1.61.2c1-.2-4.83,4.83-5,6.24-2.21.41-5.43.81-5.43,3.83a2.54,2.54,0,0,0,.2,1.2,3,3,0,0,0-1.41-.4c-2.82,0-3.62,5-8,6.24-1,.61-1,2-1.61,2.82-3.43,2-8.86,7.24-11.68,9.66-.81.4-1.61.4-2,.81-2,2.21-9.26,9.86-12.48,12.07-3,2-9.46,9.67-12.68,12.28-.81.61-4,5.44-5,6.24-6,4.83-14.09,13.69-16.1,18.32-2.61,7.45-7.65,17.11-11.88,25.16,0,2.82-1.61,2-1.61,3,0,.2.21.81.21,1.21,0,.6-1,.6-1.41.8-1,2.82-3.83,8.06-3.83,8.66v1.21c0,.6-1,.4-1,.8-4,7.05-7.64,13.69-12.07,20.94-4.23,6.64-9.06,12.68-11.88,20.13-2.21.6-2.41,2.41-3.62,3.82-.2.6-1.21.6-1.21,1.21v1.2c0,.41-3.82,5.24-7,8.46-2.82,4-6.65,9.06-14.09,10.06-2.82-1.2-4.83-3-7.65-4a24.18,24.18,0,0,1-.61-5.23c0-5.24,1.61-10.67,4-15.91.2-.4,1.21-.2,1.21-.8,0-.2-.2-.41-.2-.81,0-2,3.82-7.45,5.23-9.66,1.61-3.22,5.64-8.45,5.64-10.06v-.81c5.43-2.41,4.22-8.05,13.88-17.71.41-.41.21-1.41.61-1.82.8-1,2-1.6,3-2.61.8-1,.8-2.82,1.61-3.83,1.41-1.81,3.62-3.22,5.23-5.23,1.21-1,5.84-3.22,5.84-4.43,0-.6-.6-1.61-.6-2.21,0-1,3.82-.81,4.62-1.61,1.41-1.41.41-2.62,1.82-4.43,5.23-6.64,14.49-15.3,22.34-22.55,3.42-11.07,8.25-19.52,11.88-34.22.4-1,.2-2.61.6-3.62,0-.4,1-1.21,1-1.41,1.62-4.63,2-13.28,4.44-22.94-3.43-3.42,1.81-11.88-8.86-11.88-3.83,0-7.65,2.42-9.67,3.62-1.61.61-3,.61-4.42,1.41-6.44,3.83-12.89,9.66-18.92,14.5-.61.2-1.41.2-1.81.6-2.62,2-7.45,6.84-10.88,9.66-.8,1-2.21,1.61-3.22,2.62-2,1.81-3.42,4.63-6,5.84-2.81,3.22-8.85,8.85-11.67,12.27-.8.61-.4,1.61-1.21,2.42a4.26,4.26,0,0,1-1.61,1.21c-1.81,2.21-6.84,7.85-10.46,7.85-2.82,0-5.44-4-5.44-8a5.84,5.84,0,0,1,2.42-5c.2-5,2-9.86,3.82-14.49.2-.8,1-.8,1-1.61v-1.61c0-.8,2-1,2-2.42a.62.62,0,0,1-.2-.4c0,1.41.6-5.23,3.42-5.84,0-1.41-.8-1.41-.8-2.61,0,1,2.61-7.25,4.62-8.66,0-5.63,2.42-9.06,5-12.68,3.62,0,4.63,2.42,6.84,4-1.81,3.62-1.81,7.24-3.22,10.87-.81,2.21-8,11.67-8.66,14.29-.4,1.2.2,2.62-1.61,3,0,7-4.83,9.46-4.83,16.5.41.2.61.4,1,.4,2,0,2.42-2.81,3.62-2.81a2.08,2.08,0,0,1,.81.2c2,0,4.23-4.23,6-5.84.2-.4.8-.4,1-.6,1.61,0,2-3.42,7.65-7,5-4.22,5.84-6.84,10.67-9.86.41-.2.2-1.21.81-1.21h.8c1.21,0,9.86-8.86,17.91-14.29.61-.6,1-1.61,1.82-2,.8-.61,1.61-.41,2.41-.81,1.21-.8,1.81-2.61,3-3.22s3.63-1.21,5.44-2c.8-.4,5.23-4,11.47-4,1.21,0,9.87,1.81,9.87,3.83v.8c0,.2,0,.2.2.2h1c2.82,0,4.43,10.07,4.43,13.49,0,2-.2,3.82-.2,5.23-.2,1.21-1,2-1.21,3.22-.6,3.43-.6,6.85-1.41,9.87-1,4-2.61,8.05-3.62,12.07-.6,2-1,4-1.61,6-1.81,5-3.62,7.65-4.23,13.49a.2.2,0,0,0,.2.2c2.42,0,10.07-11.07,11.68-12.08,2-1.61,8.45-7.65,9.26-9.66.2.2.4.2.8.2,1,0,10.67-9.66,17.51-15.09,2.22-2.22,6.65-7.45,7.85-7.45h.81a.73.73,0,0,0,.6-.2,9.41,9.41,0,0,1-.2-1,.88.88,0,0,1,.2-.6c3.23-1.61,5.44-2,6.65-5,2.21-1,4-1.41,5.43-2.61,1.61-.81,2.82-2.42,4-3.42,2.82-1.41,6-1.21,8.45-4.23a.74.74,0,0,0,.41-.2C605,159.63,605.41,159.43,605.61,159.43ZM471,322.67c.6-.6.2-1.61.8-2,.4-.6,1.81-1.21,2.21-1.81s.21-1.61.61-1.81c.8-1.81,2-3,3-4.63a39.87,39.87,0,0,0,6.64-10.07c.41-.6.2-1.41.61-2,.6-.81,1.81-1.41,2.41-2.42s.4-2.21,1-3.22c.8-1.41,1.81-1.2,2.82-4.43,1-1.6,2-3,3-4.42,2-4,4.62-8,6.84-12.08,4.22-8.25,7.45-17.51,12.28-25.56,0-.61-.2-1.41-1-1.41h-.4c-3.62,5.23-11.88,8.65-14.7,14.89-1,.2,0,.81-1.41,1.41-5.43,2.21-6.64,7.25-8.05,7.25s-2.61,4-4,6.44c-.61,1-3.63,2-4.23,3-.8,1.21-.2,2.21-.8,3.42-.61.6-2.62,0-2.62,1,0,.8,1.21,3.22,1.21,4v.41a53.43,53.43,0,0,1-7.65,10.06c-.2,2.62-2.42,4.43-3.63,5.64-1,1.4-.4,2.61-1,3.62-2,2-1.81,2.41-2.21,4,0-1.81-4.23,7.05-6.25,12.08-.8,2-3.62,6.44-3.82,8.66a2.1,2.1,0,0,1,.6,1.21c0,.8-.6,3-.6,4.62,0,.61.2,1.21.2,1.62,5.23-.41,7.85-5.44,10.87-8.66C466.92,327.91,469.94,324.89,471,322.67Z"/><path class="cls-1" d="M615,206.54c-3.73,1.86-7.45,7-12.3,7-9.32,0-14-5.78-14-12.86,0-5.41,2.24-11.56,4.29-16.4.56-1.68,2.24-4.66,2.24-5.22,0-.37-.19-.75-.19-1.12,0-1.12,1.12-.93,1.3-1.3,1.31-2.43,4.85-16.4,8.2-16.4,3.17,0,3.92,2.61,5.78,4.1-.93,3.54-2.79,6.89-4.28,10.81-.38.93-2.24,1.49-2.24,2.42,0,.37.18.74.18,1.3a19.36,19.36,0,0,1-1.3,6c-.56,1.49-2.24,2.61-2.8,4.1a41.39,41.39,0,0,0-2.42,12.67c0,5.22,2.61,4.29,5.41,4.29a14.61,14.61,0,0,0,7.64-2.43c.74-.37.18-1.3.93-1.3h.71c.2,0,2.08,1.57,2.28,1.57m15.68-63.8c-4.84-2-10.67-3-10.67-9.86a4,4,0,0,1,2.61-.81c3.22,0,11.07,3.63,11.07,6.85C633.17,138.89,630.76,138.09,630.16,139.9Z"/><path class="cls-1" d="M894.23,116.75c-7.24,0-5.64-15.09-9.86-19.52-2.42-2.62-2.42-9.06-5.64-11.88-.6-.6-1.61-4.23-3.22-5.64-.6-.6-2-4.42-3-6.24-4.63-5.83-5.64-8-11.27-13.68-.6-1.21-2.42-4.63-4-5.44-.6-1-2.41-1-3.22-1.81-.6-.4-.8-1.61-1.41-2.21-4.22-3.63-9.66-6.24-13.48-11.28-7.05-1-18.52-11.47-45.9-11.47-6,0-14.49.81-19.52,3.62-3.22,1.41-5.44,4.43-8.66,5.84v.61c0,.8-.4,1.4-1.21,1.4h-.4a48.39,48.39,0,0,0-1,9.06c0,10.27,5.23,24,11.87,37.24,1.21,3.83,2.62,2.42,3.22,4,1,.6,3.83,8.65,5.64,11.87.4.41,1.81.41,1.81.81s-.2.8-.2,1.21.2.4.6.4h.81c.2,0,.2,0,.2.4v1.21c0,.8,4.83,3.42,4.83,4.83v1.41c0,.8,3,1.41,4,3.22,3.42,5.84,10.87,12.48,17.31,17.71C822,140.1,827.6,147.35,851,153a99,99,0,0,0,26.78,4c7.65,0,16.3-1.41,24.35-3,4.84-1.61,8.86-6.44,12.48-10.67,1-.8,2.42-1.41,3.42-2.21,1.41-2.22,2.22-6.44,7-7.25,1.81-5,6.24-8.05,9.66-11.87,6-6.85,9.66-12.08,19.73-22.15.6-.8.2-2,1-2.61,1-1.41,4.43-4,6-6.24,1-1.21,1-2.42,1.61-3.43,2.82-2.61,6.24-4.62,9.06-7.85.4-.2,1-3.22,1.61-3.22h.81c.4,0,.6,0,.6-.4a8.66,8.66,0,0,1-.2-1c0-.21,4.43-2.62,4.43-3.63,0-.2-.2-.8-.2-1s0-.2.2-.2a8.48,8.48,0,0,0,1,.2c1.2,0,12.47-17.11,25.76-17.11,4.63,0,8.65,3,8.85,10.46,0,2.62-1.2,10.87-3.21,15.3-1,2-3.83,5.64-5.44,8.45-.4.81-2,.21-2,1,0,.61.4,1.21.4,1.81,0,1.21-1.81,2-2.62,2.82-2.41,3.83-5.43,9.46-10.26,12.88-1.81,1.41-3.22,5-5.44,7a45.52,45.52,0,0,1-4.22,3.42c-.41,0-.61-.2-1.21-.2a.43.43,0,0,0-.4.4,4.19,4.19,0,0,1,.2,1c0,.8-1.82.4-2.42,1-2.21,2-4.22,4.42-6.24,6.44-.6.6-2,.4-2.62.6-3,2.21-7,8.25-12.07,10.27-3,1.81-6,1.81-8.66,5-1.61,1.41-3.62,1.81-5.43,3-6,4.23-11.88,5.84-20.73,9.86-8.86,2.22-14.9,7.25-21.54,12.68-1.81,1.41-5.44,3.42-6.45,4.63-4.22,4.63-10.66,8.86-16.7,12.68-.4.41-.81,2-1.61,2.62-3.43,1.61-6.24,4.83-15.91,10.87a177.83,177.83,0,0,1-22.94,12.88c-.81.41-1.81,2.22-2.62,2.62-2.41.8-7,.4-8.45,3.62,3.22,2.82,7.65,3.63,11.87,4.83,33.22,11.28,69.25,21.14,109.7,22.15,6.45.2,13.49-.81,19.13,2.81-1,2.42-9.26,3-11.68,3-1,0-1.81-.8-3-.8a8,8,0,0,1-2.82.8c-1.41,0-1.62-.8-3.22-.8-3.22.2-7.45.6-12.69.6-11.67,0-27.17-2-42.06-5.63-23.15-4.84-43.28-10.07-65.22-18.12-4.84-1.81-9.26-4.63-12.08-4.63-2,.2-4.63,1.41-7.25,2.21-5.43,2-11.47,3.83-18.11,5.84-4.23.81-10.07,1.21-15.3,2.82a17.63,17.63,0,0,1-7.45,1.81c-1.21,0-2.21-.8-3.62-.8a55,55,0,0,1-5.64.2c-10.67,0-23.35-4.43-27-6.44-2.62-1.82-8.86-4.63-12.08-9.06-.6-.41,0-1.61-1-1.61a2,2,0,0,1-.6.2,1,1,0,0,1-.2-.6c0-.81.2-1.41.2-2,0,0,.2-.4-.2-.4h-1.21c-.2,0-.2-.2-.2-.4,0-.41.2-1,.2-1.21V211c-1.61-2.62-3.82-3.63-3.82-10.67,0-5.24,6.64-15.9,25.36-15.9a29.72,29.72,0,0,1,9.26,1.41c.2,0,.4-.21.6-.21,1.41,0,2.22,1.61,3.43,1.61.2,0,.8-.2.8-.4s0-.2-.2-.2c2.62.6,3,1.61,5,2.22,3.22,1,8,.6,10.27,4,4,0,7.24,2.21,10.67,3.42,3.42,0,5.43,2.82,8.65,3.83,1.81.8,4.43,1.41,6.24,2.21,7.05,3.22,21.14,10.27,25.16,10.27a14,14,0,0,0,8.26-3.22c1-.21,2,0,3.22-.61,1.81-.8,3.22-2.41,4.83-3.42,2-.8,4-1.41,5.63-2,1.62-1,2.82-2.42,4.83-3.22.81-.61,2-.2,2.82-.81,1-.6,1.21-2,1.82-2.41,2-1.21,3.82-1.41,5.63-2.62,2.82-1.61,3.82-3,8.46-6,1-.81,2.61-.2,3.42-1,.2,0,.4-1.2.8-1.4,7.85-6.25,19.33-13.69,26.17-21.74a3.25,3.25,0,0,0-2.82-1c-3.82,0-6.64.81-13.49.81a69.06,69.06,0,0,1-9.06-.61c-33.21-5.84-51.73-18.72-73.47-38.85-2-2.61-4-5-6.23-7.85-2-2.41-4.63-4.63-6.44-7.45a204,204,0,0,1-19.93-35.63c-3-8.65-7.45-17.51-7.45-30.19a17.07,17.07,0,0,1,6-12.88c.8-1,2.81-1.41,4-2.42,5.44-3.82,5.44-2,9.67-3.22,3.22-.8,3.62-2.82,8.25-2.82,2.61,0,5,.21,5.84.21h4.22a105.88,105.88,0,0,1,26.17,3.42c4.23,1.81,9.46,2.61,13.49,4.83.4.2.6,1.41.8,1.61,3.83,1.81,10.87,1.21,21.54,11.88,2.22,0,.81,2.21,2.42,3.22,1,.8,2.81.6,4,1.41,4.23,4.42,6.24,8.25,11.07,12.88.41.6,1.61.6,1.61,1v1.41a63.9,63.9,0,0,1,7,10.47c3.42,3.22,1.81,4,3.22,5.43.4,1,2,1.21,2.62,2.22.6,1.61.2,2.62.6,3.42.2.4,1.41.2,1.41,1.21,0,.6-.2,1-.2,1.41,0,.6,1.81.8,1.81,1.41.8,1.61.6,5.43,3.22,6.24.4,8,4.43,11.87,4.43,18.11a15.85,15.85,0,0,1-.41,2.82A6.84,6.84,0,0,1,894.23,116.75Zm-139.69,78.3a.69.69,0,0,0-.41.21c-.6,0-1-.21-2-1,.4.2-9.06-3.42-15.3-3.42-2.82,0-8.85,2-13.28,3.42a11,11,0,0,1-3.42,2c-.41,2.82-1.21,5.44-1.21,8.05,0,5.24,3.42,7.05,6,10.07,2.21,2.61.2,2.21,5,4.63,1.61,1.41,8.25,5.23,10.06,5.63a91.68,91.68,0,0,0,18.52,1.82c10.07,0,19.12-2,26.37-3.43,6.44-1.41,16.51-2.41,19.93-6.44-14.69-6.64-34-15.7-49.52-21.33C755.14,195.26,754.74,195.05,754.54,195.05ZM994.68,67.64c-.41,0-1,2.21-3.83,4-2.61,2.82-7.25,10.87-14.09,13.69-1.41.4-2.21,3.22-3.22,4-1.61,1.41-4.43,2.21-4.83,3.82-2.21,1.61-2,3.63-3,5.64-4,5.84-9.66,9.46-12.88,15.09-4.43,2-7.25,4.23-7.85,9.47-1.61,1-8.25,4.42-8.25,5.83a8.92,8.92,0,0,1,.2,1,.53.53,0,0,1-.61.6c-.2,0-.6-.2-.8-.2-.41,0-.41,2.22-.81,2.62-.81.8-2.82-.4-2.82,1.61a8.66,8.66,0,0,0,.2,1c0,.61-.2,1-.8,1-4.23,1.61-6.44,5.44-8.65,9.06h1c2.41,0,4-2.42,6-3.22,2.41-.81,3.62-1,5.64-1.61,1-.2,1-1.21,1.41-1.61a145.27,145.27,0,0,0,13.68-8.05C968.51,119.37,982.6,107.9,995.08,91c5.84-8,11.87-17.11,11.87-27.78V61.4c-4.83.2-7.85,3.82-11.27,6.44C995.48,67.84,994.88,67.64,994.68,67.64Z"/><path class="cls-1" d="M1013,206.81c-4,2-8.09,7.77-13.32,7.77-10.07,0-15.1-6.24-15.1-13.89,0-5.84,2.41-12.48,4.63-17.71.6-1.81,2.41-5,2.41-5.64,0-.4-.2-.81-.2-1.21,0-1.2,1.21-1,1.41-1.41,1.41-2.61,5.24-17.71,8.86-17.71,3.42,0,4.23,2.82,6.24,4.43-1,3.82-3,7.45-4.63,11.67-.4,1-2.42,1.61-2.42,2.62,0,.4.2.8.2,1.41a20.83,20.83,0,0,1-1.4,6.44c-.61,1.61-2.42,2.82-3,4.43a44.63,44.63,0,0,0-2.62,13.69c0,5.63,2.82,4.63,5.84,4.63a15.8,15.8,0,0,0,8.25-2.62c.8-.4.2-1.41,1-1.41h.8c.2,0,2.85,3.62,3.06,3.62m16.06-66c-4.83-2-10.66-3-10.66-9.86a4,4,0,0,1,2.61-.81c3.22,0,11.07,3.63,11.07,6.85C1032.09,138.89,1029.68,138.09,1029.07,139.9Z"/></svg>