<svg width="375" height="20" viewBox="0 0 375 20" fill="none" xmlns="http://www.w3.org/2000/svg">
<path d="M33.2891 12.3809C33 12.7949 32.5957 13.1055 32.0762 13.3125C31.5605 13.5156 30.959 13.6172 30.2715 13.6172C29.5762 13.6172 28.959 13.4551 28.4199 13.1309C27.8809 12.8027 27.4629 12.3379 27.166 11.7363C26.873 11.1348 26.7227 10.4375 26.7148 9.64453V8.90039C26.7148 7.61523 27.0137 6.61914 27.6113 5.91211C28.2129 5.20508 29.0566 4.85156 30.1426 4.85156C31.0332 4.85156 31.75 5.08008 32.293 5.53711C32.8359 5.99023 33.168 6.63477 33.2891 7.4707H32.1641C31.9531 6.3418 31.2812 5.77734 30.1484 5.77734C29.3945 5.77734 28.8223 6.04297 28.4316 6.57422C28.0449 7.10156 27.8496 7.86719 27.8457 8.87109V9.56836C27.8457 10.5254 28.0645 11.2871 28.502 11.8535C28.9395 12.416 29.5312 12.6973 30.2773 12.6973C30.6992 12.6973 31.0684 12.6504 31.3848 12.5566C31.7012 12.4629 31.9629 12.3047 32.1699 12.082V10.166H30.1953V9.25195H33.2891V12.3809ZM37.6836 9.69727C36.7188 9.41992 36.0156 9.08008 35.5742 8.67773C35.1367 8.27148 34.918 7.77148 34.918 7.17773C34.918 6.50586 35.1855 5.95117 35.7207 5.51367C36.2598 5.07227 36.959 4.85156 37.8184 4.85156C38.4043 4.85156 38.9258 4.96484 39.3828 5.19141C39.8438 5.41797 40.1992 5.73047 40.4492 6.12891C40.7031 6.52734 40.8301 6.96289 40.8301 7.43555H39.6992C39.6992 6.91992 39.5352 6.51562 39.207 6.22266C38.8789 5.92578 38.416 5.77734 37.8184 5.77734C37.2637 5.77734 36.8301 5.90039 36.5176 6.14648C36.209 6.38867 36.0547 6.72656 36.0547 7.16016C36.0547 7.50781 36.2012 7.80273 36.4941 8.04492C36.791 8.2832 37.293 8.50195 38 8.70117C38.7109 8.90039 39.2656 9.12109 39.6641 9.36328C40.0664 9.60156 40.3633 9.88086 40.5547 10.2012C40.75 10.5215 40.8477 10.8984 40.8477 11.332C40.8477 12.0234 40.5781 12.5781 40.0391 12.9961C39.5 13.4102 38.7793 13.6172 37.877 13.6172C37.291 13.6172 36.7441 13.5059 36.2363 13.2832C35.7285 13.0566 35.3359 12.748 35.0586 12.3574C34.7852 11.9668 34.6484 11.5234 34.6484 11.0273H35.7793C35.7793 11.543 35.9688 11.9512 36.3477 12.252C36.7305 12.5488 37.2402 12.6973 37.877 12.6973C38.4707 12.6973 38.9258 12.5762 39.2422 12.334C39.5586 12.0918 39.7168 11.7617 39.7168 11.3438C39.7168 10.9258 39.5703 10.6035 39.2773 10.377C38.9844 10.1465 38.4531 9.91992 37.6836 9.69727Z" fill="white"/>
<path d="M168.203 13.7051C170.354 13.7051 171.631 12.0234 171.631 9.17578C171.631 8.10352 171.426 7.20117 171.033 6.50391C170.465 5.41992 169.486 4.83398 168.25 4.83398C166.41 4.83398 165.109 6.07031 165.109 7.80469C165.109 9.43359 166.281 10.6172 167.893 10.6172C168.883 10.6172 169.686 10.1543 170.084 9.35156H170.102C170.102 9.35156 170.125 9.35156 170.131 9.35156C170.143 9.35156 170.184 9.35156 170.184 9.35156C170.184 11.2852 169.451 12.4395 168.215 12.4395C167.488 12.4395 166.926 12.041 166.732 11.4023H165.227C165.479 12.791 166.656 13.7051 168.203 13.7051ZM168.256 9.41602C167.283 9.41602 166.592 8.72461 166.592 7.75781C166.592 6.81445 167.318 6.09375 168.262 6.09375C169.205 6.09375 169.932 6.82617 169.932 7.78125C169.932 8.72461 169.223 9.41602 168.256 9.41602ZM174.344 13.623C174.9 13.623 175.281 13.2246 175.281 12.6973C175.281 12.1641 174.9 11.7715 174.344 11.7715C173.793 11.7715 173.406 12.1641 173.406 12.6973C173.406 13.2246 173.793 13.623 174.344 13.623ZM174.344 9.22852C174.9 9.22852 175.281 8.83594 175.281 8.30859C175.281 7.77539 174.9 7.38281 174.344 7.38281C173.793 7.38281 173.406 7.77539 173.406 8.30859C173.406 8.83594 173.793 9.22852 174.344 9.22852ZM181.006 13.5H182.453V11.9238H183.596V10.6465H182.453V5.04492H180.32C178.826 7.29492 177.637 9.17578 176.875 10.5762V11.9238H181.006V13.5ZM178.275 10.5938C179.26 8.85938 180.139 7.4707 180.947 6.27539H181.029V10.6816H178.275V10.5938ZM187.059 13.5H188.57V5.04492H187.064L184.855 6.5918V8.04492L186.959 6.56836H187.059V13.5ZM199.785 13.5H201.408L198.402 5.04492H196.703L193.703 13.5H195.232L195.959 11.3379H199.07L199.785 13.5ZM197.471 6.65625H197.57L198.719 10.1426H196.311L197.471 6.65625ZM211.592 13.5V5.04492H209.822L207.279 11.2031H207.174L204.631 5.04492H202.861V13.5H204.268V7.55273H204.35L206.688 13.1719H207.766L210.104 7.55273H210.186V13.5H211.592Z" fill="white"/>
<path fill-rule="evenodd" clip-rule="evenodd" d="M51.9876 5.5C54.5506 5.5 56.863 6.53944 58.5 8.20688L57.4119 9.26404C56.0539 7.86553 54.126 6.99223 51.9876 6.99223C49.8629 6.99223 47.9461 7.85432 46.5896 9.23709L45.5 8.18164C47.1355 6.52896 49.4375 5.5 51.9876 5.5ZM56.3235 10.3214C55.2448 9.19175 53.7014 8.48446 51.9876 8.48446C50.2883 8.48446 48.7566 9.17976 47.6793 10.2927L48.7693 11.3486C49.5672 10.5054 50.7136 9.97668 51.9876 9.97668C53.2769 9.97668 54.4356 10.5182 55.2346 11.3793L56.3235 10.3214ZM54.1444 12.4385C53.6264 11.8454 52.8524 11.4689 51.9876 11.4689C51.139 11.4689 50.3779 11.8314 49.8602 12.4053L52.0225 14.5L54.1444 12.4385Z" fill="white"/>
<path fill-rule="evenodd" clip-rule="evenodd" d="M19.5 5C19.2239 5 19 5.22386 19 5.5V14C19 14.2761 19.2239 14.5 19.5 14.5H21C21.2761 14.5 21.5 14.2761 21.5 14V5.5C21.5 5.22386 21.2761 5 21 5H19.5ZM15.5 7.5C15.2239 7.5 15 7.72386 15 8V14C15 14.2761 15.2239 14.5 15.5 14.5H17C17.2761 14.5 17.5 14.2761 17.5 14V8C17.5 7.72386 17.2761 7.5 17 7.5H15.5ZM11 10C11 9.72386 11.2239 9.5 11.5 9.5H13C13.2761 9.5 13.5 9.72386 13.5 10V14C13.5 14.2761 13.2761 14.5 13 14.5H11.5C11.2239 14.5 11 14.2761 11 14V10ZM7.5 11.5C7.22386 11.5 7 11.7239 7 12V14C7 14.2761 7.22386 14.5 7.5 14.5H9C9.27614 14.5 9.5 14.2761 9.5 14V12C9.5 11.7239 9.27614 11.5 9 11.5H7.5Z" fill="white"/>
<path opacity="0.4" d="M346.5 7.5C346.5 6.39543 347.395 5.5 348.5 5.5H365.5C366.605 5.5 367.5 6.39543 367.5 7.5V13C367.5 14.1046 366.605 15 365.5 15H364.469H348.5C347.395 15 346.5 14.1046 346.5 13V7.5Z" stroke="white"/>
<path fill-rule="evenodd" clip-rule="evenodd" d="M369 12.374C369.863 12.152 370.5 11.3689 370.5 10.437C370.5 9.50507 369.863 8.72202 369 8.5V12.374Z" fill="white" fill-opacity="0.4"/>
<path fill-rule="evenodd" clip-rule="evenodd" d="M348 8C348 7.44772 348.448 7 349 7H365C365.552 7 366 7.44772 366 8V12.5C366 13.0523 365.552 13.5 365 13.5H349C348.448 13.5 348 13.0523 348 12.5V8Z" fill="white"/>
<path d="M318.268 14.5H317.178V7.27539L314.992 8.07812V7.09375L318.098 5.92773H318.268V14.5ZM326.793 10.8613C326.793 12.1309 326.576 13.0742 326.143 13.6914C325.709 14.3086 325.031 14.6172 324.109 14.6172C323.199 14.6172 322.525 14.3164 322.088 13.7148C321.65 13.1094 321.424 12.207 321.408 11.0078V9.56055C321.408 8.30664 321.625 7.375 322.059 6.76562C322.492 6.15625 323.172 5.85156 324.098 5.85156C325.016 5.85156 325.691 6.14648 326.125 6.73633C326.559 7.32227 326.781 8.22852 326.793 9.45508V10.8613ZM325.709 9.37891C325.709 8.46094 325.58 7.79297 325.322 7.375C325.064 6.95312 324.656 6.74219 324.098 6.74219C323.543 6.74219 323.139 6.95117 322.885 7.36914C322.631 7.78711 322.5 8.42969 322.492 9.29688V11.0312C322.492 11.9531 322.625 12.6348 322.891 13.0762C323.16 13.5137 323.566 13.7324 324.109 13.7324C324.645 13.7324 325.041 13.5254 325.299 13.1113C325.561 12.6973 325.697 12.0449 325.709 11.1543V9.37891ZM333.531 10.8613C333.531 12.1309 333.314 13.0742 332.881 13.6914C332.447 14.3086 331.77 14.6172 330.848 14.6172C329.938 14.6172 329.264 14.3164 328.826 13.7148C328.389 13.1094 328.162 12.207 328.146 11.0078V9.56055C328.146 8.30664 328.363 7.375 328.797 6.76562C329.23 6.15625 329.91 5.85156 330.836 5.85156C331.754 5.85156 332.43 6.14648 332.863 6.73633C333.297 7.32227 333.52 8.22852 333.531 9.45508V10.8613ZM332.447 9.37891C332.447 8.46094 332.318 7.79297 332.061 7.375C331.803 6.95312 331.395 6.74219 330.836 6.74219C330.281 6.74219 329.877 6.95117 329.623 7.36914C329.369 7.78711 329.238 8.42969 329.23 9.29688V11.0312C329.23 11.9531 329.363 12.6348 329.629 13.0762C329.898 13.5137 330.305 13.7324 330.848 13.7324C331.383 13.7324 331.779 13.5254 332.037 13.1113C332.299 12.6973 332.436 12.0449 332.447 11.1543V9.37891ZM334.826 7.60938C334.826 7.09766 334.988 6.67578 335.312 6.34375C335.641 6.01172 336.061 5.8457 336.572 5.8457C337.092 5.8457 337.512 6.01367 337.832 6.34961C338.156 6.68164 338.318 7.11328 338.318 7.64453V8.06055C338.318 8.57617 338.154 8.99805 337.826 9.32617C337.502 9.65039 337.088 9.8125 336.584 9.8125C336.076 9.8125 335.656 9.65039 335.324 9.32617C334.992 8.99805 334.826 8.5625 334.826 8.01953V7.60938ZM335.635 8.06055C335.635 8.36523 335.721 8.61719 335.893 8.81641C336.064 9.01172 336.295 9.10938 336.584 9.10938C336.861 9.10938 337.084 9.01367 337.252 8.82227C337.424 8.63086 337.51 8.36914 337.51 8.03711V7.60938C337.51 7.30469 337.426 7.05273 337.258 6.85352C337.09 6.6543 336.861 6.55469 336.572 6.55469C336.283 6.55469 336.055 6.6543 335.887 6.85352C335.719 7.05273 335.635 7.3125 335.635 7.63281V8.06055ZM338.98 12.4082C338.98 11.8965 339.143 11.4766 339.467 11.1484C339.795 10.8164 340.215 10.6504 340.727 10.6504C341.238 10.6504 341.658 10.8145 341.986 11.1426C342.314 11.4707 342.479 11.9062 342.479 12.4492V12.8652C342.479 13.377 342.314 13.7988 341.986 14.1309C341.662 14.459 341.246 14.623 340.738 14.623C340.23 14.623 339.811 14.4609 339.479 14.1367C339.146 13.8086 338.98 13.373 338.98 12.8301V12.4082ZM339.789 12.8652C339.789 13.1738 339.875 13.4277 340.047 13.627C340.219 13.8223 340.449 13.9199 340.738 13.9199C341.02 13.9199 341.244 13.8242 341.412 13.6328C341.58 13.4375 341.664 13.1738 341.664 12.8418V12.4082C341.664 12.0996 341.578 11.8477 341.406 11.6523C341.238 11.457 341.012 11.3594 340.727 11.3594C340.449 11.3594 340.223 11.457 340.047 11.6523C339.875 11.8438 339.789 12.1035 339.789 12.4316V12.8652ZM336.83 13.8555L336.215 13.4688L340.381 6.80078L340.996 7.1875L336.83 13.8555Z" fill="white"/>
</svg>
