<svg width="17" height="17" viewBox="0 0 17 17" fill="none" xmlns="http://www.w3.org/2000/svg">
<path d="M7.74265 0.927339C7.74265 1.64678 7.70474 1.68469 6.94756 1.89294C4.41065 2.5743 2.57431 4.41064 1.89278 6.94755C1.68453 7.7049 1.64662 7.74281 0.927181 7.74281C0.16983 7.74281 0.16983 7.74281 0.16983 8.50016C0.16983 9.25751 0.16983 9.25751 0.927181 9.25751C1.64662 9.25751 1.68453 9.29542 1.89278 10.0526C2.57431 12.5893 4.41065 14.4258 6.94756 15.1074C7.70491 15.3156 7.74265 15.3534 7.74265 16.0728C7.74265 16.83 7.74265 16.83 8.5 16.83C9.25718 16.83 9.25718 16.83 9.25718 16.0728C9.25718 15.3534 9.29509 15.3155 10.0524 15.1074C12.5892 14.4257 14.4257 12.5893 15.1072 10.0526C15.3155 9.29542 15.3532 9.25751 16.0727 9.25751C16.8298 9.25751 16.8298 9.25751 16.8298 8.50016C16.8298 7.74281 16.8298 7.74281 16.0727 7.74281C15.3532 7.74281 15.3153 7.7049 15.1072 6.94755C14.4255 4.41064 12.5892 2.5743 10.0524 1.89277C9.29526 1.68452 9.25718 1.64661 9.25718 0.92717C9.25718 0.16982 9.25718 0.16982 8.5 0.16982C7.74265 0.16999 7.74265 0.169989 7.74265 0.927339ZM10.2039 3.50199C12.1917 4.08883 13.8009 6.3228 13.8009 8.51886C13.8009 11.2829 11.2831 13.8008 8.51904 13.8008C5.66032 13.8008 3.19923 11.3397 3.19923 8.49982C3.19923 5.67901 5.58467 3.25566 8.42435 3.21792C8.84068 3.19905 9.63594 3.33165 10.2039 3.50199Z" fill="#839ED2"/>
<path d="M7.26937 5.73595C5.35721 6.56895 4.90297 9.10586 6.39846 10.6013C8.51887 12.7408 12.0023 10.8286 11.4532 7.83732C11.1126 6.05776 8.97328 4.97861 7.26937 5.73595Z" fill="#839ED2"/>
</svg>
