<svg width="160" height="39" viewBox="0 0 160 39" fill="none" xmlns="http://www.w3.org/2000/svg">
<mask id="mask0" mask-type="alpha" maskUnits="userSpaceOnUse" x="7" y="10" width="12" height="19">
<path fill-rule="evenodd" clip-rule="evenodd" d="M16.2939 10.6235L7.9705 18.5919C7.50157 19.0401 7.50157 19.7885 7.9705 20.2386L16.2939 28.2051C16.8043 28.6939 17.6102 28.6939 18.1207 28.2051C18.6607 27.6878 18.6607 26.8263 18.1207 26.3081L11.1496 19.6348C11.0231 19.5142 11.0231 19.3144 11.1496 19.1939L18.1207 12.5206C18.6607 12.0033 18.6607 11.1417 18.1207 10.6235C17.865 10.3805 17.5363 10.2581 17.2077 10.2581C16.8782 10.2581 16.5496 10.3805 16.2939 10.6235Z" fill="white"/>
</mask>
<g mask="url(#mask0)">
<path fill-rule="evenodd" clip-rule="evenodd" d="M16.2939 10.6235L7.9705 18.5919C7.50157 19.0401 7.50157 19.7885 7.9705 20.2386L16.2939 28.2051C16.8043 28.6939 17.6102 28.6939 18.1207 28.2051C18.6607 27.6878 18.6607 26.8263 18.1207 26.3081L11.1496 19.6348C11.0231 19.5142 11.0231 19.3144 11.1496 19.1939L18.1207 12.5206C18.6607 12.0033 18.6607 11.1417 18.1207 10.6235C17.865 10.3805 17.5363 10.2581 17.2077 10.2581C16.8782 10.2581 16.5496 10.3805 16.2939 10.6235Z" fill="white"/>
</g>
</svg>
