<svg width="13" height="14" viewBox="0 0 13 14" fill="none" xmlns="http://www.w3.org/2000/svg">
<path fill-rule="evenodd" clip-rule="evenodd" d="M12.759 11.9547L9.24629 8.54626C9.87594 7.71329 10.2132 6.70624 10.2085 5.67338C10.1965 2.97725 7.94827 0.793393 5.16861 0.777821C3.83839 0.771983 2.56101 1.2824 1.62104 2.19538C0.681064 3.10835 0.15658 4.34803 0.164424 5.63827C0.176438 8.33464 2.4249 10.5187 5.20481 10.5343C6.27403 10.5388 7.31607 10.2078 8.17544 9.59071L8.1791 9.58804L11.6886 12.9938C11.8783 13.1869 12.1611 13.2651 12.4272 13.198C12.6934 13.1309 12.9012 12.9292 12.9701 12.671C13.039 12.4128 12.9582 12.1386 12.759 11.9547ZM5.20115 9.55827C2.97734 9.54586 1.1786 7.7988 1.16884 5.64182C1.16283 4.60977 1.58246 3.61822 2.33429 2.8879C3.08613 2.15757 4.10778 1.74909 5.17182 1.75338C7.39563 1.76579 9.19437 3.51284 9.20413 5.66982C9.21014 6.70187 8.79051 7.69342 8.03868 8.42375C7.28684 9.15407 6.26519 9.56255 5.20115 9.55827Z" fill="#8E8E93"/>
</svg>
