<svg width="23" height="19" viewBox="0 0 23 19" fill="none" xmlns="http://www.w3.org/2000/svg">
<path fill-rule="evenodd" clip-rule="evenodd" d="M7.89497 3.27637L8.21611 3.55926C8.29449 3.62682 8.41971 3.62823 8.49595 3.56278L11.0741 1.40661V11.9661H11.9264V1.31515L14.6974 3.6046C14.7728 3.66899 14.8968 3.66758 14.9747 3.60073L15.3269 3.32241C15.4049 3.25591 15.4066 3.1493 15.3308 3.08456L12.122 0.433863C12.116 0.397771 12.0966 0.362701 12.0639 0.33454L11.7428 0.0516514C11.664 -0.0159042 11.5388 -0.0173116 11.4629 0.0481328L7.89028 3.03606C7.81404 3.1015 7.8166 3.20917 7.89497 3.27637ZM4.25926 17.9475V5.98458H9.37037V5.28088H3.40741V18.6512H19.5926V5.28088H13.6296V5.98458H18.7407V17.9475H4.25926Z" fill="white"/>
</svg>
